  0
SECTION
  2
HEADER
  9
$ACADVER
  1
AC1009
  9
$LIMMIN
 10
55.89566666666668
 20
27.85251666666667
  9
$LIMMAX
 10
56.79141666666668
 20
28.83608333333334
  9
$GRIDMODE
 70
58
  9
$GRIDUNIT
 10
  0
 20
  0
  9
$SNAPMODE
 70
1
  9
$SNAPSTYLE
 70
0
  9
$SNAPUNIT
 10
0.01968333333333334
 20
0.01968333333333334
  9
$FILLMODE
 70
1
  0
ENDSEC
  0
SECTION
  2
TABLES
  0
TABLE
  2
LTYPE
 70
1
  0
LTYPE
  2
CONTINUOUS
 70
64
  3
Solid line
 72
65
 73
0
 40
  0
  0
ENDTAB
  0
TABLE
  2
LAYER
 70
224
  0
LAYER
  2
0
 70
64
  6
CONTINUOUS
 62
1
  0
LAYER
  2
PADSTACKS
 70
64
  6
CONTINUOUS
 62
1
  0
LAYER
  2
COMPONENTS_TOP
 70
64
  6
CONTINUOUS
 62
1
  0
LAYER
  2
COMPONENTS_BOTTOM
 70
64
  6
CONTINUOUS
 62
1
  0
LAYER
  2
GLOBAL_LAYER
 70
64
  6
CONTINUOUS
 62
1
  0
LAYER
  2
TOP
 70
64
  6
CONTINUOUS
 62
2
  0
LAYER
  2
BOTTOM
 70
64
  6
CONTINUOUS
 62
3
  0
LAYER
  2
GND
 70
64
  6
CONTINUOUS
 62
4
  0
LAYER
  2
INNER
 70
64
  6
CONTINUOUS
 62
5
  0
LAYER
  2
PLANE
 70
64
  6
CONTINUOUS
 62
6
  0
LAYER
  2
POWER
 70
64
  6
CONTINUOUS
 62
7
  0
LAYER
  2
INNER1
 70
64
  6
CONTINUOUS
 62
8
  0
LAYER
  2
INNER2
 70
64
  6
CONTINUOUS
 62
1
  0
LAYER
  2
INNER3
 70
64
  6
CONTINUOUS
 62
2
  0
LAYER
  2
INNER4
 70
64
  6
CONTINUOUS
 62
3
  0
LAYER
  2
INNER5
 70
64
  6
CONTINUOUS
 62
4
  0
LAYER
  2
INNER6
 70
64
  6
CONTINUOUS
 62
5
  0
LAYER
  2
INNER7
 70
64
  6
CONTINUOUS
 62
6
  0
LAYER
  2
INNER8
 70
64
  6
CONTINUOUS
 62
7
  0
LAYER
  2
INNER9
 70
64
  6
CONTINUOUS
 62
8
  0
LAYER
  2
INNER10
 70
64
  6
CONTINUOUS
 62
1
  0
LAYER
  2
INNER11
 70
64
  6
CONTINUOUS
 62
2
  0
LAYER
  2
INNER12
 70
64
  6
CONTINUOUS
 62
3
  0
LAYER
  2
INNER13
 70
64
  6
CONTINUOUS
 62
4
  0
LAYER
  2
INNER14
 70
64
  6
CONTINUOUS
 62
5
  0
LAYER
  2
INNER15
 70
64
  6
CONTINUOUS
 62
6
  0
LAYER
  2
INNER16
 70
64
  6
CONTINUOUS
 62
7
  0
LAYER
  2
SMTOP
 70
64
  6
CONTINUOUS
 62
8
  0
LAYER
  2
SMBOT
 70
64
  6
CONTINUOUS
 62
1
  0
LAYER
  2
SPTOP
 70
64
  6
CONTINUOUS
 62
2
  0
LAYER
  2
SPBOT
 70
64
  6
CONTINUOUS
 62
3
  0
LAYER
  2
SSTOP
 70
64
  6
CONTINUOUS
 62
4
  0
LAYER
  2
SSBOT
 70
64
  6
CONTINUOUS
 62
5
  0
LAYER
  2
ASYTOP
 70
64
  6
CONTINUOUS
 62
6
  0
LAYER
  2
ASYBOT
 70
64
  6
CONTINUOUS
 62
7
  0
LAYER
  2
DRLDWG
 70
64
  6
CONTINUOUS
 62
8
  0
LAYER
  2
DRILL
 70
64
  6
CONTINUOUS
 62
1
  0
LAYER
  2
FABDWG
 70
64
  6
CONTINUOUS
 62
2
  0
LAYER
  2
PHOTO
 70
64
  6
CONTINUOUS
 62
3
  0
LAYER
  2
HOLES
 70
64
  6
CONTINUOUS
 62
4
  0
LAYER
  2
TEXT_GLOBAL_LAYER
 70
64
  6
CONTINUOUS
 62
5
  0
LAYER
  2
TEXT_TOP
 70
64
  6
CONTINUOUS
 62
6
  0
LAYER
  2
TEXT_BOTTOM
 70
64
  6
CONTINUOUS
 62
7
  0
LAYER
  2
TEXT_GND
 70
64
  6
CONTINUOUS
 62
8
  0
LAYER
  2
TEXT_POWER
 70
64
  6
CONTINUOUS
 62
1
  0
LAYER
  2
TEXT_INNER
 70
64
  6
CONTINUOUS
 62
2
  0
LAYER
  2
TEXT_PLANE
 70
64
  6
CONTINUOUS
 62
3
  0
LAYER
  2
TEXT_INNER1
 70
64
  6
CONTINUOUS
 62
4
  0
LAYER
  2
TEXT_INNER2
 70
64
  6
CONTINUOUS
 62
5
  0
LAYER
  2
TEXT_INNER3
 70
64
  6
CONTINUOUS
 62
6
  0
LAYER
  2
TEXT_INNER4
 70
64
  6
CONTINUOUS
 62
7
  0
LAYER
  2
TEXT_INNER5
 70
64
  6
CONTINUOUS
 62
8
  0
LAYER
  2
TEXT_INNER6
 70
64
  6
CONTINUOUS
 62
1
  0
LAYER
  2
TEXT_INNER7
 70
64
  6
CONTINUOUS
 62
2
  0
LAYER
  2
TEXT_INNER8
 70
64
  6
CONTINUOUS
 62
3
  0
LAYER
  2
TEXT_INNER9
 70
64
  6
CONTINUOUS
 62
4
  0
LAYER
  2
TEXT_INNER10
 70
64
  6
CONTINUOUS
 62
5
  0
LAYER
  2
TEXT_INNER11
 70
64
  6
CONTINUOUS
 62
6
  0
LAYER
  2
TEXT_INNER12
 70
64
  6
CONTINUOUS
 62
7
  0
LAYER
  2
TEXT_INNER13
 70
64
  6
CONTINUOUS
 62
8
  0
LAYER
  2
TEXT_INNER14
 70
64
  6
CONTINUOUS
 62
1
  0
LAYER
  2
TEXT_INNER15
 70
64
  6
CONTINUOUS
 62
2
  0
LAYER
  2
TEXT_INNER16
 70
64
  6
CONTINUOUS
 62
3
  0
LAYER
  2
TEXT_SMTOP
 70
64
  6
CONTINUOUS
 62
4
  0
LAYER
  2
TEXT_SMBOT
 70
64
  6
CONTINUOUS
 62
5
  0
LAYER
  2
TEXT_SPTOP
 70
64
  6
CONTINUOUS
 62
6
  0
LAYER
  2
TEXT_SPBOT
 70
64
  6
CONTINUOUS
 62
7
  0
LAYER
  2
TEXT_SSTOP
 70
64
  6
CONTINUOUS
 62
8
  0
LAYER
  2
TEXT_SSBOT
 70
64
  6
CONTINUOUS
 62
1
  0
LAYER
  2
TEXT_ASYTOP
 70
64
  6
CONTINUOUS
 62
2
  0
LAYER
  2
TEXT_ASYBOT
 70
64
  6
CONTINUOUS
 62
3
  0
LAYER
  2
TEXT_DRLDWG
 70
64
  6
CONTINUOUS
 62
4
  0
LAYER
  2
TEXT_FABDWG
 70
64
  6
CONTINUOUS
 62
5
  0
LAYER
  2
TEXT_PHOTO
 70
64
  6
CONTINUOUS
 62
6
  0
LAYER
  2
TEXT_DRILL
 70
64
  6
CONTINUOUS
 62
7
  0
LAYER
  2
TEXT_HOLES
 70
64
  6
CONTINUOUS
 62
8
  0
LAYER
  2
OBS_GLOBAL_LAYER
 70
64
  6
CONTINUOUS
 62
1
  0
LAYER
  2
OBS_TOP
 70
64
  6
CONTINUOUS
 62
2
  0
LAYER
  2
OBS_BOTTOM
 70
64
  6
CONTINUOUS
 62
3
  0
LAYER
  2
OBS_GND
 70
64
  6
CONTINUOUS
 62
4
  0
LAYER
  2
OBS_POWER
 70
64
  6
CONTINUOUS
 62
5
  0
LAYER
  2
OBS_INNER
 70
64
  6
CONTINUOUS
 62
6
  0
LAYER
  2
OBS_PLANE
 70
64
  6
CONTINUOUS
 62
7
  0
LAYER
  2
OBS_INNER1
 70
64
  6
CONTINUOUS
 62
8
  0
LAYER
  2
OBS_INNER2
 70
64
  6
CONTINUOUS
 62
1
  0
LAYER
  2
OBS_INNER3
 70
64
  6
CONTINUOUS
 62
2
  0
LAYER
  2
OBS_INNER4
 70
64
  6
CONTINUOUS
 62
3
  0
LAYER
  2
OBS_INNER5
 70
64
  6
CONTINUOUS
 62
4
  0
LAYER
  2
OBS_INNER6
 70
64
  6
CONTINUOUS
 62
5
  0
LAYER
  2
OBS_INNER7
 70
64
  6
CONTINUOUS
 62
6
  0
LAYER
  2
OBS_INNER8
 70
64
  6
CONTINUOUS
 62
7
  0
LAYER
  2
OBS_INNER9
 70
64
  6
CONTINUOUS
 62
8
  0
LAYER
  2
OBS_INNER10
 70
64
  6
CONTINUOUS
 62
1
  0
LAYER
  2
OBS_INNER11
 70
64
  6
CONTINUOUS
 62
2
  0
LAYER
  2
OBS_INNER12
 70
64
  6
CONTINUOUS
 62
3
  0
LAYER
  2
OBS_INNER13
 70
64
  6
CONTINUOUS
 62
4
  0
LAYER
  2
OBS_INNER14
 70
64
  6
CONTINUOUS
 62
5
  0
LAYER
  2
OBS_INNER15
 70
64
  6
CONTINUOUS
 62
6
  0
LAYER
  2
OBS_INNER16
 70
64
  6
CONTINUOUS
 62
7
  0
LAYER
  2
OBS_SMTOP
 70
64
  6
CONTINUOUS
 62
8
  0
LAYER
  2
OBS_SMBOT
 70
64
  6
CONTINUOUS
 62
1
  0
LAYER
  2
OBS_SPTOP
 70
64
  6
CONTINUOUS
 62
2
  0
LAYER
  2
OBS_SPBOT
 70
64
  6
CONTINUOUS
 62
3
  0
LAYER
  2
OBS_SSTOP
 70
64
  6
CONTINUOUS
 62
4
  0
LAYER
  2
OBS_SSBOT
 70
64
  6
CONTINUOUS
 62
5
  0
LAYER
  2
OBS_ASYTOP
 70
64
  6
CONTINUOUS
 62
6
  0
LAYER
  2
OBS_ASYBOT
 70
64
  6
CONTINUOUS
 62
7
  0
LAYER
  2
OBS_DRLDWG
 70
64
  6
CONTINUOUS
 62
8
  0
LAYER
  2
OBS_DRILL
 70
64
  6
CONTINUOUS
 62
1
  0
LAYER
  2
OBS_FABDWG
 70
64
  6
CONTINUOUS
 62
2
  0
LAYER
  2
OBS_PHOTO
 70
64
  6
CONTINUOUS
 62
3
  0
LAYER
  2
OBS_HOLES
 70
64
  6
CONTINUOUS
 62
4
  0
LAYER
  2
COPPER_GLOBAL_LAYER
 70
64
  6
CONTINUOUS
 62
5
  0
LAYER
  2
COPPER_TOP
 70
64
  6
CONTINUOUS
 62
6
  0
LAYER
  2
COPPER_BOT
 70
64
  6
CONTINUOUS
 62
7
  0
LAYER
  2
COPPER_GND
 70
64
  6
CONTINUOUS
 62
8
  0
LAYER
  2
COPPER_POWER
 70
64
  6
CONTINUOUS
 62
1
  0
LAYER
  2
COPPER_INNER
 70
64
  6
CONTINUOUS
 62
2
  0
LAYER
  2
COPPER_PLANE
 70
64
  6
CONTINUOUS
 62
3
  0
LAYER
  2
COPPER_INNER1
 70
64
  6
CONTINUOUS
 62
4
  0
LAYER
  2
COPPER_INNER2
 70
64
  6
CONTINUOUS
 62
5
  0
LAYER
  2
COPPER_INNER3
 70
64
  6
CONTINUOUS
 62
6
  0
LAYER
  2
COPPER_INNER4
 70
64
  6
CONTINUOUS
 62
7
  0
LAYER
  2
COPPER_INNER5
 70
64
  6
CONTINUOUS
 62
8
  0
LAYER
  2
COPPER_INNER6
 70
64
  6
CONTINUOUS
 62
1
  0
LAYER
  2
COPPER_INNER7
 70
64
  6
CONTINUOUS
 62
2
  0
LAYER
  2
COPPER_INNER8
 70
64
  6
CONTINUOUS
 62
3
  0
LAYER
  2
COPPER_INNER9
 70
64
  6
CONTINUOUS
 62
4
  0
LAYER
  2
COPPER_INNER10
 70
64
  6
CONTINUOUS
 62
5
  0
LAYER
  2
COPPER_INNER11
 70
64
  6
CONTINUOUS
 62
6
  0
LAYER
  2
COPPER_INNER12
 70
64
  6
CONTINUOUS
 62
7
  0
LAYER
  2
COPPER_INNER13
 70
64
  6
CONTINUOUS
 62
8
  0
LAYER
  2
COPPER_INNER14
 70
64
  6
CONTINUOUS
 62
1
  0
LAYER
  2
COPPER_INNER15
 70
64
  6
CONTINUOUS
 62
2
  0
LAYER
  2
COPPER_INNER16
 70
64
  6
CONTINUOUS
 62
3
  0
LAYER
  2
COPPER_SMTOP
 70
64
  6
CONTINUOUS
 62
4
  0
LAYER
  2
COPPER_SMBOT
 70
64
  6
CONTINUOUS
 62
5
  0
LAYER
  2
COPPER_SPTOP
 70
64
  6
CONTINUOUS
 62
6
  0
LAYER
  2
COPPER_SPBOT
 70
64
  6
CONTINUOUS
 62
7
  0
LAYER
  2
COPPER_SSTOP
 70
64
  6
CONTINUOUS
 62
8
  0
LAYER
  2
COPPER_SSBOT
 70
64
  6
CONTINUOUS
 62
1
  0
LAYER
  2
COPPER_ASYTOP
 70
64
  6
CONTINUOUS
 62
2
  0
LAYER
  2
COPPER_ASYBOT
 70
64
  6
CONTINUOUS
 62
3
  0
LAYER
  2
COPPER_DRLDWG
 70
64
  6
CONTINUOUS
 62
4
  0
LAYER
  2
COPPER_DRILL
 70
64
  6
CONTINUOUS
 62
5
  0
LAYER
  2
COPPER_HOLES
 70
64
  6
CONTINUOUS
 62
6
  0
LAYER
  2
TRACKS_GLOBAL_LAYER
 70
64
  6
CONTINUOUS
 62
7
  0
LAYER
  2
TRACKS_TOP
 70
64
  6
CONTINUOUS
 62
8
  0
LAYER
  2
TRACKS_BOTTOM
 70
64
  6
CONTINUOUS
 62
1
  0
LAYER
  2
TRACKS_GND
 70
64
  6
CONTINUOUS
 62
2
  0
LAYER
  2
TRACKS_INNER
 70
64
  6
CONTINUOUS
 62
3
  0
LAYER
  2
TRACKS_PLANE
 70
64
  6
CONTINUOUS
 62
4
  0
LAYER
  2
TRACKS_POWER
 70
64
  6
CONTINUOUS
 62
5
  0
LAYER
  2
TRACKS_INNER1
 70
64
  6
CONTINUOUS
 62
6
  0
LAYER
  2
TRACKS_INNER2
 70
64
  6
CONTINUOUS
 62
7
  0
LAYER
  2
TRACKS_INNER3
 70
64
  6
CONTINUOUS
 62
8
  0
LAYER
  2
TRACKS_INNER4
 70
64
  6
CONTINUOUS
 62
1
  0
LAYER
  2
TRACKS_INNER5
 70
64
  6
CONTINUOUS
 62
2
  0
LAYER
  2
TRACKS_INNER6
 70
64
  6
CONTINUOUS
 62
3
  0
LAYER
  2
TRACKS_INNER7
 70
64
  6
CONTINUOUS
 62
4
  0
LAYER
  2
TRACKS_INNER8
 70
64
  6
CONTINUOUS
 62
5
  0
LAYER
  2
TRACKS_INNER9
 70
64
  6
CONTINUOUS
 62
6
  0
LAYER
  2
TRACKS_INNER10
 70
64
  6
CONTINUOUS
 62
7
  0
LAYER
  2
TRACKS_INNER11
 70
64
  6
CONTINUOUS
 62
8
  0
LAYER
  2
TRACKS_INNER12
 70
64
  6
CONTINUOUS
 62
1
  0
LAYER
  2
TRACKS_INNER13
 70
64
  6
CONTINUOUS
 62
2
  0
LAYER
  2
TRACKS_INNER14
 70
64
  6
CONTINUOUS
 62
3
  0
LAYER
  2
TRACKS_INNER15
 70
64
  6
CONTINUOUS
 62
4
  0
LAYER
  2
TRACKS_INNER16
 70
64
  6
CONTINUOUS
 62
5
  0
ENDTAB
  0
TABLE
  2
STYLE
 70
0
  0
ENDTAB
  0
ENDSEC
  0
SECTION
  2
BLOCKS
  0
BLOCK
  8
0
  2
viastack_VIA1
 10
0.0
 20
0.0
 30
0.0
 70
2
  0
POINT
  8
0
 10
  0
 20
  0
  0
POLYLINE
  8
TOP
 66
1
 70
1
 40
0.02750000000000001
 41
0.02750000000000001
  0
VERTEX
  8
TOP
 10
-0.01375
 20
  0
 42
  1
  0
VERTEX
  8
TOP
 10
0.01375
 20
  0
 42
  1
  0
SEQEND
  8
TOP
  0
POLYLINE
  8
BOTTOM
 66
1
 70
1
 40
0.02750000000000001
 41
0.02750000000000001
  0
VERTEX
  8
BOTTOM
 10
-0.01375
 20
  0
 42
  1
  0
VERTEX
  8
BOTTOM
 10
0.01375
 20
  0
 42
  1
  0
SEQEND
  8
BOTTOM
  0
POLYLINE
  8
GND
 66
1
 70
1
 40
0.03500000000000001
 41
0.03500000000000001
  0
VERTEX
  8
GND
 10
-0.01750000000000001
 20
  0
 42
  1
  0
VERTEX
  8
GND
 10
0.01750000000000001
 20
  0
 42
  1
  0
SEQEND
  8
GND
  0
POLYLINE
  8
POWER
 66
1
 70
1
 40
0.03500000000000001
 41
0.03500000000000001
  0
VERTEX
  8
POWER
 10
-0.01750000000000001
 20
  0
 42
  1
  0
VERTEX
  8
POWER
 10
0.01750000000000001
 20
  0
 42
  1
  0
SEQEND
  8
POWER
  0
POLYLINE
  8
INNER1
 66
1
 70
1
 40
0.02750000000000001
 41
0.02750000000000001
  0
VERTEX
  8
INNER1
 10
-0.01375
 20
  0
 42
  1
  0
VERTEX
  8
INNER1
 10
0.01375
 20
  0
 42
  1
  0
SEQEND
  8
INNER1
  0
POLYLINE
  8
INNER2
 66
1
 70
1
 40
0.02750000000000001
 41
0.02750000000000001
  0
VERTEX
  8
INNER2
 10
-0.01375
 20
  0
 42
  1
  0
VERTEX
  8
INNER2
 10
0.01375
 20
  0
 42
  1
  0
SEQEND
  8
INNER2
  0
POLYLINE
  8
INNER3
 66
1
 70
1
 40
0.02750000000000001
 41
0.02750000000000001
  0
VERTEX
  8
INNER3
 10
-0.01375
 20
  0
 42
  1
  0
VERTEX
  8
INNER3
 10
0.01375
 20
  0
 42
  1
  0
SEQEND
  8
INNER3
  0
POLYLINE
  8
INNER4
 66
1
 70
1
 40
0.02750000000000001
 41
0.02750000000000001
  0
VERTEX
  8
INNER4
 10
-0.01375
 20
  0
 42
  1
  0
VERTEX
  8
INNER4
 10
0.01375
 20
  0
 42
  1
  0
SEQEND
  8
INNER4
  0
POLYLINE
  8
INNER5
 66
1
 70
1
 40
0.02750000000000001
 41
0.02750000000000001
  0
VERTEX
  8
INNER5
 10
-0.01375
 20
  0
 42
  1
  0
VERTEX
  8
INNER5
 10
0.01375
 20
  0
 42
  1
  0
SEQEND
  8
INNER5
  0
POLYLINE
  8
INNER6
 66
1
 70
1
 40
0.02750000000000001
 41
0.02750000000000001
  0
VERTEX
  8
INNER6
 10
-0.01375
 20
  0
 42
  1
  0
VERTEX
  8
INNER6
 10
0.01375
 20
  0
 42
  1
  0
SEQEND
  8
INNER6
  0
POLYLINE
  8
INNER7
 66
1
 70
1
 40
0.02750000000000001
 41
0.02750000000000001
  0
VERTEX
  8
INNER7
 10
-0.01375
 20
  0
 42
  1
  0
VERTEX
  8
INNER7
 10
0.01375
 20
  0
 42
  1
  0
SEQEND
  8
INNER7
  0
POLYLINE
  8
INNER8
 66
1
 70
1
 40
0.02750000000000001
 41
0.02750000000000001
  0
VERTEX
  8
INNER8
 10
-0.01375
 20
  0
 42
  1
  0
VERTEX
  8
INNER8
 10
0.01375
 20
  0
 42
  1
  0
SEQEND
  8
INNER8
  0
POLYLINE
  8
INNER9
 66
1
 70
1
 40
0.02750000000000001
 41
0.02750000000000001
  0
VERTEX
  8
INNER9
 10
-0.01375
 20
  0
 42
  1
  0
VERTEX
  8
INNER9
 10
0.01375
 20
  0
 42
  1
  0
SEQEND
  8
INNER9
  0
POLYLINE
  8
INNER10
 66
1
 70
1
 40
0.02750000000000001
 41
0.02750000000000001
  0
VERTEX
  8
INNER10
 10
-0.01375
 20
  0
 42
  1
  0
VERTEX
  8
INNER10
 10
0.01375
 20
  0
 42
  1
  0
SEQEND
  8
INNER10
  0
POLYLINE
  8
INNER11
 66
1
 70
1
 40
0.02750000000000001
 41
0.02750000000000001
  0
VERTEX
  8
INNER11
 10
-0.01375
 20
  0
 42
  1
  0
VERTEX
  8
INNER11
 10
0.01375
 20
  0
 42
  1
  0
SEQEND
  8
INNER11
  0
POLYLINE
  8
INNER12
 66
1
 70
1
 40
0.02750000000000001
 41
0.02750000000000001
  0
VERTEX
  8
INNER12
 10
-0.01375
 20
  0
 42
  1
  0
VERTEX
  8
INNER12
 10
0.01375
 20
  0
 42
  1
  0
SEQEND
  8
INNER12
  0
POLYLINE
  8
SMTOP
 66
1
 70
1
 40
0.03000000000000001
 41
0.03000000000000001
  0
VERTEX
  8
SMTOP
 10
-0.015
 20
  0
 42
  1
  0
VERTEX
  8
SMTOP
 10
0.015
 20
  0
 42
  1
  0
SEQEND
  8
SMTOP
  0
POLYLINE
  8
SMBOT
 66
1
 70
1
 40
0.03000000000000001
 41
0.03000000000000001
  0
VERTEX
  8
SMBOT
 10
-0.015
 20
  0
 42
  1
  0
VERTEX
  8
SMBOT
 10
0.015
 20
  0
 42
  1
  0
SEQEND
  8
SMBOT
  0
POLYLINE
  8
DRLDWG
 66
1
 70
1
 40
0.01750000000000001
 41
0.01750000000000001
  0
VERTEX
  8
DRLDWG
 10
-0.008750000000000003
 20
  0
 42
  1
  0
VERTEX
  8
DRLDWG
 10
0.008750000000000003
 20
  0
 42
  1
  0
SEQEND
  8
DRLDWG
  0
POLYLINE
  8
DRILL
 66
1
 70
1
 40
0.01750000000000001
 41
0.01750000000000001
  0
VERTEX
  8
DRILL
 10
-0.008750000000000003
 20
  0
 42
  1
  0
VERTEX
  8
DRILL
 10
0.008750000000000003
 20
  0
 42
  1
  0
SEQEND
  8
DRILL
  0
POLYLINE
  8
FABDWG
 66
1
 70
1
 40
0.01750000000000001
 41
0.01750000000000001
  0
VERTEX
  8
FABDWG
 10
-0.008750000000000003
 20
  0
 42
  1
  0
VERTEX
  8
FABDWG
 10
0.008750000000000003
 20
  0
 42
  1
  0
SEQEND
  8
FABDWG
  0
POLYLINE
  8
NOTES
 66
1
 70
1
 40
0.01750000000000001
 41
0.01750000000000001
  0
VERTEX
  8
NOTES
 10
-0.008750000000000003
 20
  0
 42
  1
  0
VERTEX
  8
NOTES
 10
0.008750000000000003
 20
  0
 42
  1
  0
SEQEND
  8
NOTES
  0
ENDBLK
  0
BLOCK
  8
0
  2
viastack_VIA2
 10
0.0
 20
0.0
 30
0.0
 70
2
  0
POINT
  8
0
 10
  0
 20
  0
  0
ENDBLK
  0
BLOCK
  8
0
  2
viastack_VIA3
 10
0.0
 20
0.0
 30
0.0
 70
2
  0
POINT
  8
0
 10
  0
 20
  0
  0
ENDBLK
  0
BLOCK
  8
0
  2
viastack_VIA4
 10
0.0
 20
0.0
 30
0.0
 70
2
  0
POINT
  8
0
 10
  0
 20
  0
  0
ENDBLK
  0
BLOCK
  8
0
  2
viastack_VIA5
 10
0.0
 20
0.0
 30
0.0
 70
2
  0
POINT
  8
0
 10
  0
 20
  0
  0
ENDBLK
  0
BLOCK
  8
0
  2
viastack_VIA6
 10
0.0
 20
0.0
 30
0.0
 70
2
  0
POINT
  8
0
 10
  0
 20
  0
  0
ENDBLK
  0
BLOCK
  8
0
  2
viastack_VIA7
 10
0.0
 20
0.0
 30
0.0
 70
2
  0
POINT
  8
0
 10
  0
 20
  0
  0
ENDBLK
  0
BLOCK
  8
0
  2
viastack_VIA8
 10
0.0
 20
0.0
 30
0.0
 70
2
  0
POINT
  8
0
 10
  0
 20
  0
  0
ENDBLK
  0
BLOCK
  8
0
  2
viastack_VIA9
 10
0.0
 20
0.0
 30
0.0
 70
2
  0
POINT
  8
0
 10
  0
 20
  0
  0
ENDBLK
  0
BLOCK
  8
0
  2
viastack_VIA10
 10
0.0
 20
0.0
 30
0.0
 70
2
  0
POINT
  8
0
 10
  0
 20
  0
  0
ENDBLK
  0
BLOCK
  8
0
  2
viastack_VIA11
 10
0.0
 20
0.0
 30
0.0
 70
2
  0
POINT
  8
0
 10
  0
 20
  0
  0
ENDBLK
  0
BLOCK
  8
0
  2
viastack_VIA12
 10
0.0
 20
0.0
 30
0.0
 70
2
  0
POINT
  8
0
 10
  0
 20
  0
  0
ENDBLK
  0
BLOCK
  8
0
  2
viastack_VIA13
 10
0.0
 20
0.0
 30
0.0
 70
2
  0
POINT
  8
0
 10
  0
 20
  0
  0
ENDBLK
  0
BLOCK
  8
0
  2
viastack_VIA14
 10
0.0
 20
0.0
 30
0.0
 70
2
  0
POINT
  8
0
 10
  0
 20
  0
  0
ENDBLK
  0
BLOCK
  8
0
  2
viastack_VIA15
 10
0.0
 20
0.0
 30
0.0
 70
2
  0
POINT
  8
0
 10
  0
 20
  0
  0
ENDBLK
  0
BLOCK
  8
0
  2
viastack_VIA16
 10
0.0
 20
0.0
 30
0.0
 70
2
  0
POINT
  8
0
 10
  0
 20
  0
  0
ENDBLK
  0
BLOCK
  8
0
  2
padstack_T1
 10
0.0
 20
0.0
 30
0.0
 70
2
  0
POINT
  8
0
 10
  0
 20
  0
  0
POLYLINE
  8
TOP
 66
1
 70
1
 40
0.03100000000000001
 41
0.03100000000000001
  0
VERTEX
  8
TOP
 10
-0.0155
 20
  0
 42
  1
  0
VERTEX
  8
TOP
 10
0.0155
 20
  0
 42
  1
  0
SEQEND
  8
TOP
  0
POLYLINE
  8
BOTTOM
 66
1
 70
1
 40
0.03100000000000001
 41
0.03100000000000001
  0
VERTEX
  8
BOTTOM
 10
-0.0155
 20
  0
 42
  1
  0
VERTEX
  8
BOTTOM
 10
0.0155
 20
  0
 42
  1
  0
SEQEND
  8
BOTTOM
  0
POLYLINE
  8
GND
 66
1
 70
1
 40
0.03500000000000001
 41
0.03500000000000001
  0
VERTEX
  8
GND
 10
-0.01750000000000001
 20
  0
 42
  1
  0
VERTEX
  8
GND
 10
0.01750000000000001
 20
  0
 42
  1
  0
SEQEND
  8
GND
  0
POLYLINE
  8
POWER
 66
1
 70
1
 40
0.03500000000000001
 41
0.03500000000000001
  0
VERTEX
  8
POWER
 10
-0.01750000000000001
 20
  0
 42
  1
  0
VERTEX
  8
POWER
 10
0.01750000000000001
 20
  0
 42
  1
  0
SEQEND
  8
POWER
  0
POLYLINE
  8
INNER1
 66
1
 70
1
 40
0.03100000000000001
 41
0.03100000000000001
  0
VERTEX
  8
INNER1
 10
-0.0155
 20
  0
 42
  1
  0
VERTEX
  8
INNER1
 10
0.0155
 20
  0
 42
  1
  0
SEQEND
  8
INNER1
  0
POLYLINE
  8
INNER2
 66
1
 70
1
 40
0.03100000000000001
 41
0.03100000000000001
  0
VERTEX
  8
INNER2
 10
-0.0155
 20
  0
 42
  1
  0
VERTEX
  8
INNER2
 10
0.0155
 20
  0
 42
  1
  0
SEQEND
  8
INNER2
  0
POLYLINE
  8
INNER3
 66
1
 70
1
 40
0.03100000000000001
 41
0.03100000000000001
  0
VERTEX
  8
INNER3
 10
-0.0155
 20
  0
 42
  1
  0
VERTEX
  8
INNER3
 10
0.0155
 20
  0
 42
  1
  0
SEQEND
  8
INNER3
  0
POLYLINE
  8
INNER4
 66
1
 70
1
 40
0.03100000000000001
 41
0.03100000000000001
  0
VERTEX
  8
INNER4
 10
-0.0155
 20
  0
 42
  1
  0
VERTEX
  8
INNER4
 10
0.0155
 20
  0
 42
  1
  0
SEQEND
  8
INNER4
  0
POLYLINE
  8
INNER5
 66
1
 70
1
 40
0.03100000000000001
 41
0.03100000000000001
  0
VERTEX
  8
INNER5
 10
-0.0155
 20
  0
 42
  1
  0
VERTEX
  8
INNER5
 10
0.0155
 20
  0
 42
  1
  0
SEQEND
  8
INNER5
  0
POLYLINE
  8
INNER6
 66
1
 70
1
 40
0.03100000000000001
 41
0.03100000000000001
  0
VERTEX
  8
INNER6
 10
-0.0155
 20
  0
 42
  1
  0
VERTEX
  8
INNER6
 10
0.0155
 20
  0
 42
  1
  0
SEQEND
  8
INNER6
  0
POLYLINE
  8
INNER7
 66
1
 70
1
 40
0.03100000000000001
 41
0.03100000000000001
  0
VERTEX
  8
INNER7
 10
-0.0155
 20
  0
 42
  1
  0
VERTEX
  8
INNER7
 10
0.0155
 20
  0
 42
  1
  0
SEQEND
  8
INNER7
  0
POLYLINE
  8
INNER8
 66
1
 70
1
 40
0.03100000000000001
 41
0.03100000000000001
  0
VERTEX
  8
INNER8
 10
-0.0155
 20
  0
 42
  1
  0
VERTEX
  8
INNER8
 10
0.0155
 20
  0
 42
  1
  0
SEQEND
  8
INNER8
  0
POLYLINE
  8
INNER9
 66
1
 70
1
 40
0.03100000000000001
 41
0.03100000000000001
  0
VERTEX
  8
INNER9
 10
-0.0155
 20
  0
 42
  1
  0
VERTEX
  8
INNER9
 10
0.0155
 20
  0
 42
  1
  0
SEQEND
  8
INNER9
  0
POLYLINE
  8
INNER10
 66
1
 70
1
 40
0.03100000000000001
 41
0.03100000000000001
  0
VERTEX
  8
INNER10
 10
-0.0155
 20
  0
 42
  1
  0
VERTEX
  8
INNER10
 10
0.0155
 20
  0
 42
  1
  0
SEQEND
  8
INNER10
  0
POLYLINE
  8
INNER11
 66
1
 70
1
 40
0.03100000000000001
 41
0.03100000000000001
  0
VERTEX
  8
INNER11
 10
-0.0155
 20
  0
 42
  1
  0
VERTEX
  8
INNER11
 10
0.0155
 20
  0
 42
  1
  0
SEQEND
  8
INNER11
  0
POLYLINE
  8
INNER12
 66
1
 70
1
 40
0.03100000000000001
 41
0.03100000000000001
  0
VERTEX
  8
INNER12
 10
-0.0155
 20
  0
 42
  1
  0
VERTEX
  8
INNER12
 10
0.0155
 20
  0
 42
  1
  0
SEQEND
  8
INNER12
  0
POLYLINE
  8
SMTOP
 66
1
 70
1
 40
0.03350000000000001
 41
0.03350000000000001
  0
VERTEX
  8
SMTOP
 10
-0.01675
 20
  0
 42
  1
  0
VERTEX
  8
SMTOP
 10
0.01675
 20
  0
 42
  1
  0
SEQEND
  8
SMTOP
  0
POLYLINE
  8
SMBOT
 66
1
 70
1
 40
0.03350000000000001
 41
0.03350000000000001
  0
VERTEX
  8
SMBOT
 10
-0.01675
 20
  0
 42
  1
  0
VERTEX
  8
SMBOT
 10
0.01675
 20
  0
 42
  1
  0
SEQEND
  8
SMBOT
  0
POLYLINE
  8
DRLDWG
 66
1
 70
1
 40
0.01900000000000001
 41
0.01900000000000001
  0
VERTEX
  8
DRLDWG
 10
-0.009500000000000003
 20
  0
 42
  1
  0
VERTEX
  8
DRLDWG
 10
0.009500000000000003
 20
  0
 42
  1
  0
SEQEND
  8
DRLDWG
  0
POLYLINE
  8
DRILL
 66
1
 70
1
 40
0.01900000000000001
 41
0.01900000000000001
  0
VERTEX
  8
DRILL
 10
-0.009500000000000003
 20
  0
 42
  1
  0
VERTEX
  8
DRILL
 10
0.009500000000000003
 20
  0
 42
  1
  0
SEQEND
  8
DRILL
  0
POLYLINE
  8
FABDWG
 66
1
 70
1
 40
0.01900000000000001
 41
0.01900000000000001
  0
VERTEX
  8
FABDWG
 10
-0.009500000000000003
 20
  0
 42
  1
  0
VERTEX
  8
FABDWG
 10
0.009500000000000003
 20
  0
 42
  1
  0
SEQEND
  8
FABDWG
  0
POLYLINE
  8
NOTES
 66
1
 70
1
 40
0.01900000000000001
 41
0.01900000000000001
  0
VERTEX
  8
NOTES
 10
-0.009500000000000003
 20
  0
 42
  1
  0
VERTEX
  8
NOTES
 10
0.009500000000000003
 20
  0
 42
  1
  0
SEQEND
  8
NOTES
  0
ENDBLK
  0
BLOCK
  8
0
  2
padstack_T2
 10
0.0
 20
0.0
 30
0.0
 70
2
  0
POINT
  8
0
 10
  0
 20
  0
  0
POLYLINE
  8
TOP
 66
1
 70
0
 40
0.06200000000000001
 41
0.06200000000000001
  0
VERTEX
  8
TOP
 10
-0.03100000000000001
 20
  0
  0
VERTEX
  8
TOP
 10
0.03100000000000001
 20
  0
  0
SEQEND
  8
TOP
  0
POLYLINE
  8
BOTTOM
 66
1
 70
1
 40
0.03100000000000001
 41
0.03100000000000001
  0
VERTEX
  8
BOTTOM
 10
-0.0155
 20
  0
 42
  1
  0
VERTEX
  8
BOTTOM
 10
0.0155
 20
  0
 42
  1
  0
SEQEND
  8
BOTTOM
  0
POLYLINE
  8
GND
 66
1
 70
1
 40
0.03500000000000001
 41
0.03500000000000001
  0
VERTEX
  8
GND
 10
-0.01750000000000001
 20
  0
 42
  1
  0
VERTEX
  8
GND
 10
0.01750000000000001
 20
  0
 42
  1
  0
SEQEND
  8
GND
  0
POLYLINE
  8
POWER
 66
1
 70
1
 40
0.03500000000000001
 41
0.03500000000000001
  0
VERTEX
  8
POWER
 10
-0.01750000000000001
 20
  0
 42
  1
  0
VERTEX
  8
POWER
 10
0.01750000000000001
 20
  0
 42
  1
  0
SEQEND
  8
POWER
  0
POLYLINE
  8
INNER1
 66
1
 70
1
 40
0.03100000000000001
 41
0.03100000000000001
  0
VERTEX
  8
INNER1
 10
-0.0155
 20
  0
 42
  1
  0
VERTEX
  8
INNER1
 10
0.0155
 20
  0
 42
  1
  0
SEQEND
  8
INNER1
  0
POLYLINE
  8
INNER2
 66
1
 70
1
 40
0.03100000000000001
 41
0.03100000000000001
  0
VERTEX
  8
INNER2
 10
-0.0155
 20
  0
 42
  1
  0
VERTEX
  8
INNER2
 10
0.0155
 20
  0
 42
  1
  0
SEQEND
  8
INNER2
  0
POLYLINE
  8
INNER3
 66
1
 70
1
 40
0.03100000000000001
 41
0.03100000000000001
  0
VERTEX
  8
INNER3
 10
-0.0155
 20
  0
 42
  1
  0
VERTEX
  8
INNER3
 10
0.0155
 20
  0
 42
  1
  0
SEQEND
  8
INNER3
  0
POLYLINE
  8
INNER4
 66
1
 70
1
 40
0.03100000000000001
 41
0.03100000000000001
  0
VERTEX
  8
INNER4
 10
-0.0155
 20
  0
 42
  1
  0
VERTEX
  8
INNER4
 10
0.0155
 20
  0
 42
  1
  0
SEQEND
  8
INNER4
  0
POLYLINE
  8
INNER5
 66
1
 70
1
 40
0.03100000000000001
 41
0.03100000000000001
  0
VERTEX
  8
INNER5
 10
-0.0155
 20
  0
 42
  1
  0
VERTEX
  8
INNER5
 10
0.0155
 20
  0
 42
  1
  0
SEQEND
  8
INNER5
  0
POLYLINE
  8
INNER6
 66
1
 70
1
 40
0.03100000000000001
 41
0.03100000000000001
  0
VERTEX
  8
INNER6
 10
-0.0155
 20
  0
 42
  1
  0
VERTEX
  8
INNER6
 10
0.0155
 20
  0
 42
  1
  0
SEQEND
  8
INNER6
  0
POLYLINE
  8
INNER7
 66
1
 70
1
 40
0.03100000000000001
 41
0.03100000000000001
  0
VERTEX
  8
INNER7
 10
-0.0155
 20
  0
 42
  1
  0
VERTEX
  8
INNER7
 10
0.0155
 20
  0
 42
  1
  0
SEQEND
  8
INNER7
  0
POLYLINE
  8
INNER8
 66
1
 70
1
 40
0.03100000000000001
 41
0.03100000000000001
  0
VERTEX
  8
INNER8
 10
-0.0155
 20
  0
 42
  1
  0
VERTEX
  8
INNER8
 10
0.0155
 20
  0
 42
  1
  0
SEQEND
  8
INNER8
  0
POLYLINE
  8
INNER9
 66
1
 70
1
 40
0.03100000000000001
 41
0.03100000000000001
  0
VERTEX
  8
INNER9
 10
-0.0155
 20
  0
 42
  1
  0
VERTEX
  8
INNER9
 10
0.0155
 20
  0
 42
  1
  0
SEQEND
  8
INNER9
  0
POLYLINE
  8
INNER10
 66
1
 70
1
 40
0.03100000000000001
 41
0.03100000000000001
  0
VERTEX
  8
INNER10
 10
-0.0155
 20
  0
 42
  1
  0
VERTEX
  8
INNER10
 10
0.0155
 20
  0
 42
  1
  0
SEQEND
  8
INNER10
  0
POLYLINE
  8
INNER11
 66
1
 70
1
 40
0.03100000000000001
 41
0.03100000000000001
  0
VERTEX
  8
INNER11
 10
-0.0155
 20
  0
 42
  1
  0
VERTEX
  8
INNER11
 10
0.0155
 20
  0
 42
  1
  0
SEQEND
  8
INNER11
  0
POLYLINE
  8
INNER12
 66
1
 70
1
 40
0.03100000000000001
 41
0.03100000000000001
  0
VERTEX
  8
INNER12
 10
-0.0155
 20
  0
 42
  1
  0
VERTEX
  8
INNER12
 10
0.0155
 20
  0
 42
  1
  0
SEQEND
  8
INNER12
  0
POLYLINE
  8
SMTOP
 66
1
 70
0
 40
0.06700000000000002
 41
0.06700000000000002
  0
VERTEX
  8
SMTOP
 10
-0.03350000000000001
 20
  0
  0
VERTEX
  8
SMTOP
 10
0.03350000000000001
 20
  0
  0
SEQEND
  8
SMTOP
  0
POLYLINE
  8
SMBOT
 66
1
 70
1
 40
0.03350000000000001
 41
0.03350000000000001
  0
VERTEX
  8
SMBOT
 10
-0.01675
 20
  0
 42
  1
  0
VERTEX
  8
SMBOT
 10
0.01675
 20
  0
 42
  1
  0
SEQEND
  8
SMBOT
  0
POLYLINE
  8
DRLDWG
 66
1
 70
1
 40
0.01900000000000001
 41
0.01900000000000001
  0
VERTEX
  8
DRLDWG
 10
-0.009500000000000003
 20
  0
 42
  1
  0
VERTEX
  8
DRLDWG
 10
0.009500000000000003
 20
  0
 42
  1
  0
SEQEND
  8
DRLDWG
  0
POLYLINE
  8
DRILL
 66
1
 70
1
 40
0.01900000000000001
 41
0.01900000000000001
  0
VERTEX
  8
DRILL
 10
-0.009500000000000003
 20
  0
 42
  1
  0
VERTEX
  8
DRILL
 10
0.009500000000000003
 20
  0
 42
  1
  0
SEQEND
  8
DRILL
  0
POLYLINE
  8
FABDWG
 66
1
 70
1
 40
0.01900000000000001
 41
0.01900000000000001
  0
VERTEX
  8
FABDWG
 10
-0.009500000000000003
 20
  0
 42
  1
  0
VERTEX
  8
FABDWG
 10
0.009500000000000003
 20
  0
 42
  1
  0
SEQEND
  8
FABDWG
  0
POLYLINE
  8
NOTES
 66
1
 70
1
 40
0.01900000000000001
 41
0.01900000000000001
  0
VERTEX
  8
NOTES
 10
-0.009500000000000003
 20
  0
 42
  1
  0
VERTEX
  8
NOTES
 10
0.009500000000000003
 20
  0
 42
  1
  0
SEQEND
  8
NOTES
  0
ENDBLK
  0
BLOCK
  8
0
  2
padstack_T7
 10
0.0
 20
0.0
 30
0.0
 70
2
  0
POINT
  8
0
 10
  0
 20
  0
  0
POLYLINE
  8
TOP
 66
1
 70
1
 40
0.02
 41
0.02
  0
VERTEX
  8
TOP
 10
-0.01
 20
  0
 42
  1
  0
VERTEX
  8
TOP
 10
0.01
 20
  0
 42
  1
  0
SEQEND
  8
TOP
  0
POLYLINE
  8
BOTTOM
 66
1
 70
1
 40
0.02
 41
0.02
  0
VERTEX
  8
BOTTOM
 10
-0.01
 20
  0
 42
  1
  0
VERTEX
  8
BOTTOM
 10
0.01
 20
  0
 42
  1
  0
SEQEND
  8
BOTTOM
  0
POLYLINE
  8
GND
 66
1
 70
1
 40
0.02500000000000001
 41
0.02500000000000001
  0
VERTEX
  8
GND
 10
-0.0125
 20
  0
 42
  1
  0
VERTEX
  8
GND
 10
0.0125
 20
  0
 42
  1
  0
SEQEND
  8
GND
  0
POLYLINE
  8
POWER
 66
1
 70
1
 40
0.02500000000000001
 41
0.02500000000000001
  0
VERTEX
  8
POWER
 10
-0.0125
 20
  0
 42
  1
  0
VERTEX
  8
POWER
 10
0.0125
 20
  0
 42
  1
  0
SEQEND
  8
POWER
  0
POLYLINE
  8
INNER1
 66
1
 70
1
 40
0.02
 41
0.02
  0
VERTEX
  8
INNER1
 10
-0.01
 20
  0
 42
  1
  0
VERTEX
  8
INNER1
 10
0.01
 20
  0
 42
  1
  0
SEQEND
  8
INNER1
  0
POLYLINE
  8
INNER2
 66
1
 70
1
 40
0.02
 41
0.02
  0
VERTEX
  8
INNER2
 10
-0.01
 20
  0
 42
  1
  0
VERTEX
  8
INNER2
 10
0.01
 20
  0
 42
  1
  0
SEQEND
  8
INNER2
  0
POLYLINE
  8
INNER3
 66
1
 70
1
 40
0.02
 41
0.02
  0
VERTEX
  8
INNER3
 10
-0.01
 20
  0
 42
  1
  0
VERTEX
  8
INNER3
 10
0.01
 20
  0
 42
  1
  0
SEQEND
  8
INNER3
  0
POLYLINE
  8
INNER4
 66
1
 70
1
 40
0.02
 41
0.02
  0
VERTEX
  8
INNER4
 10
-0.01
 20
  0
 42
  1
  0
VERTEX
  8
INNER4
 10
0.01
 20
  0
 42
  1
  0
SEQEND
  8
INNER4
  0
POLYLINE
  8
INNER5
 66
1
 70
1
 40
0.02
 41
0.02
  0
VERTEX
  8
INNER5
 10
-0.01
 20
  0
 42
  1
  0
VERTEX
  8
INNER5
 10
0.01
 20
  0
 42
  1
  0
SEQEND
  8
INNER5
  0
POLYLINE
  8
INNER6
 66
1
 70
1
 40
0.02
 41
0.02
  0
VERTEX
  8
INNER6
 10
-0.01
 20
  0
 42
  1
  0
VERTEX
  8
INNER6
 10
0.01
 20
  0
 42
  1
  0
SEQEND
  8
INNER6
  0
POLYLINE
  8
INNER7
 66
1
 70
1
 40
0.02
 41
0.02
  0
VERTEX
  8
INNER7
 10
-0.01
 20
  0
 42
  1
  0
VERTEX
  8
INNER7
 10
0.01
 20
  0
 42
  1
  0
SEQEND
  8
INNER7
  0
POLYLINE
  8
INNER8
 66
1
 70
1
 40
0.02
 41
0.02
  0
VERTEX
  8
INNER8
 10
-0.01
 20
  0
 42
  1
  0
VERTEX
  8
INNER8
 10
0.01
 20
  0
 42
  1
  0
SEQEND
  8
INNER8
  0
POLYLINE
  8
INNER9
 66
1
 70
1
 40
0.02
 41
0.02
  0
VERTEX
  8
INNER9
 10
-0.01
 20
  0
 42
  1
  0
VERTEX
  8
INNER9
 10
0.01
 20
  0
 42
  1
  0
SEQEND
  8
INNER9
  0
POLYLINE
  8
INNER10
 66
1
 70
1
 40
0.02
 41
0.02
  0
VERTEX
  8
INNER10
 10
-0.01
 20
  0
 42
  1
  0
VERTEX
  8
INNER10
 10
0.01
 20
  0
 42
  1
  0
SEQEND
  8
INNER10
  0
POLYLINE
  8
INNER11
 66
1
 70
1
 40
0.02
 41
0.02
  0
VERTEX
  8
INNER11
 10
-0.01
 20
  0
 42
  1
  0
VERTEX
  8
INNER11
 10
0.01
 20
  0
 42
  1
  0
SEQEND
  8
INNER11
  0
POLYLINE
  8
INNER12
 66
1
 70
1
 40
0.02
 41
0.02
  0
VERTEX
  8
INNER12
 10
-0.01
 20
  0
 42
  1
  0
VERTEX
  8
INNER12
 10
0.01
 20
  0
 42
  1
  0
SEQEND
  8
INNER12
  0
POLYLINE
  8
SMTOP
 66
1
 70
1
 40
0.02350000000000001
 41
0.02350000000000001
  0
VERTEX
  8
SMTOP
 10
-0.01175
 20
  0
 42
  1
  0
VERTEX
  8
SMTOP
 10
0.01175
 20
  0
 42
  1
  0
SEQEND
  8
SMTOP
  0
POLYLINE
  8
SMBOT
 66
1
 70
1
 40
0.02350000000000001
 41
0.02350000000000001
  0
VERTEX
  8
SMBOT
 10
-0.01175
 20
  0
 42
  1
  0
VERTEX
  8
SMBOT
 10
0.01175
 20
  0
 42
  1
  0
SEQEND
  8
SMBOT
  0
POLYLINE
  8
DRLDWG
 66
1
 70
1
 40
0.011
 41
0.011
  0
VERTEX
  8
DRLDWG
 10
-0.005500000000000001
 20
  0
 42
  1
  0
VERTEX
  8
DRLDWG
 10
0.005500000000000001
 20
  0
 42
  1
  0
SEQEND
  8
DRLDWG
  0
POLYLINE
  8
DRILL
 66
1
 70
1
 40
0.011
 41
0.011
  0
VERTEX
  8
DRILL
 10
-0.005500000000000001
 20
  0
 42
  1
  0
VERTEX
  8
DRILL
 10
0.005500000000000001
 20
  0
 42
  1
  0
SEQEND
  8
DRILL
  0
POLYLINE
  8
FABDWG
 66
1
 70
1
 40
0.011
 41
0.011
  0
VERTEX
  8
FABDWG
 10
-0.005500000000000001
 20
  0
 42
  1
  0
VERTEX
  8
FABDWG
 10
0.005500000000000001
 20
  0
 42
  1
  0
SEQEND
  8
FABDWG
  0
POLYLINE
  8
NOTES
 66
1
 70
1
 40
0.011
 41
0.011
  0
VERTEX
  8
NOTES
 10
-0.005500000000000001
 20
  0
 42
  1
  0
VERTEX
  8
NOTES
 10
0.005500000000000001
 20
  0
 42
  1
  0
SEQEND
  8
NOTES
  0
ENDBLK
  0
BLOCK
  8
0
  2
padstack_J1
 10
0.0
 20
0.0
 30
0.0
 70
2
  0
POINT
  8
0
 10
  0
 20
  0
  0
POLYLINE
  8
TOP
 66
1
 70
1
 40
0.02750000000000001
 41
0.02750000000000001
  0
VERTEX
  8
TOP
 10
-0.01375
 20
  0
 42
  1
  0
VERTEX
  8
TOP
 10
0.01375
 20
  0
 42
  1
  0
SEQEND
  8
TOP
  0
POLYLINE
  8
BOTTOM
 66
1
 70
1
 40
0.02750000000000001
 41
0.02750000000000001
  0
VERTEX
  8
BOTTOM
 10
-0.01375
 20
  0
 42
  1
  0
VERTEX
  8
BOTTOM
 10
0.01375
 20
  0
 42
  1
  0
SEQEND
  8
BOTTOM
  0
POLYLINE
  8
GND
 66
1
 70
1
 40
0.03500000000000001
 41
0.03500000000000001
  0
VERTEX
  8
GND
 10
-0.01750000000000001
 20
  0
 42
  1
  0
VERTEX
  8
GND
 10
0.01750000000000001
 20
  0
 42
  1
  0
SEQEND
  8
GND
  0
POLYLINE
  8
POWER
 66
1
 70
1
 40
0.03500000000000001
 41
0.03500000000000001
  0
VERTEX
  8
POWER
 10
-0.01750000000000001
 20
  0
 42
  1
  0
VERTEX
  8
POWER
 10
0.01750000000000001
 20
  0
 42
  1
  0
SEQEND
  8
POWER
  0
POLYLINE
  8
INNER1
 66
1
 70
1
 40
0.02750000000000001
 41
0.02750000000000001
  0
VERTEX
  8
INNER1
 10
-0.01375
 20
  0
 42
  1
  0
VERTEX
  8
INNER1
 10
0.01375
 20
  0
 42
  1
  0
SEQEND
  8
INNER1
  0
POLYLINE
  8
INNER2
 66
1
 70
1
 40
0.02750000000000001
 41
0.02750000000000001
  0
VERTEX
  8
INNER2
 10
-0.01375
 20
  0
 42
  1
  0
VERTEX
  8
INNER2
 10
0.01375
 20
  0
 42
  1
  0
SEQEND
  8
INNER2
  0
POLYLINE
  8
INNER3
 66
1
 70
1
 40
0.02750000000000001
 41
0.02750000000000001
  0
VERTEX
  8
INNER3
 10
-0.01375
 20
  0
 42
  1
  0
VERTEX
  8
INNER3
 10
0.01375
 20
  0
 42
  1
  0
SEQEND
  8
INNER3
  0
POLYLINE
  8
INNER4
 66
1
 70
1
 40
0.02750000000000001
 41
0.02750000000000001
  0
VERTEX
  8
INNER4
 10
-0.01375
 20
  0
 42
  1
  0
VERTEX
  8
INNER4
 10
0.01375
 20
  0
 42
  1
  0
SEQEND
  8
INNER4
  0
POLYLINE
  8
INNER5
 66
1
 70
1
 40
0.02750000000000001
 41
0.02750000000000001
  0
VERTEX
  8
INNER5
 10
-0.01375
 20
  0
 42
  1
  0
VERTEX
  8
INNER5
 10
0.01375
 20
  0
 42
  1
  0
SEQEND
  8
INNER5
  0
POLYLINE
  8
INNER6
 66
1
 70
1
 40
0.02750000000000001
 41
0.02750000000000001
  0
VERTEX
  8
INNER6
 10
-0.01375
 20
  0
 42
  1
  0
VERTEX
  8
INNER6
 10
0.01375
 20
  0
 42
  1
  0
SEQEND
  8
INNER6
  0
POLYLINE
  8
INNER7
 66
1
 70
1
 40
0.02750000000000001
 41
0.02750000000000001
  0
VERTEX
  8
INNER7
 10
-0.01375
 20
  0
 42
  1
  0
VERTEX
  8
INNER7
 10
0.01375
 20
  0
 42
  1
  0
SEQEND
  8
INNER7
  0
POLYLINE
  8
INNER8
 66
1
 70
1
 40
0.02750000000000001
 41
0.02750000000000001
  0
VERTEX
  8
INNER8
 10
-0.01375
 20
  0
 42
  1
  0
VERTEX
  8
INNER8
 10
0.01375
 20
  0
 42
  1
  0
SEQEND
  8
INNER8
  0
POLYLINE
  8
INNER9
 66
1
 70
1
 40
0.02750000000000001
 41
0.02750000000000001
  0
VERTEX
  8
INNER9
 10
-0.01375
 20
  0
 42
  1
  0
VERTEX
  8
INNER9
 10
0.01375
 20
  0
 42
  1
  0
SEQEND
  8
INNER9
  0
POLYLINE
  8
INNER10
 66
1
 70
1
 40
0.02750000000000001
 41
0.02750000000000001
  0
VERTEX
  8
INNER10
 10
-0.01375
 20
  0
 42
  1
  0
VERTEX
  8
INNER10
 10
0.01375
 20
  0
 42
  1
  0
SEQEND
  8
INNER10
  0
POLYLINE
  8
INNER11
 66
1
 70
1
 40
0.02750000000000001
 41
0.02750000000000001
  0
VERTEX
  8
INNER11
 10
-0.01375
 20
  0
 42
  1
  0
VERTEX
  8
INNER11
 10
0.01375
 20
  0
 42
  1
  0
SEQEND
  8
INNER11
  0
POLYLINE
  8
INNER12
 66
1
 70
1
 40
0.02750000000000001
 41
0.02750000000000001
  0
VERTEX
  8
INNER12
 10
-0.01375
 20
  0
 42
  1
  0
VERTEX
  8
INNER12
 10
0.01375
 20
  0
 42
  1
  0
SEQEND
  8
INNER12
  0
POLYLINE
  8
SMTOP
 66
1
 70
1
 40
0.03000000000000001
 41
0.03000000000000001
  0
VERTEX
  8
SMTOP
 10
-0.015
 20
  0
 42
  1
  0
VERTEX
  8
SMTOP
 10
0.015
 20
  0
 42
  1
  0
SEQEND
  8
SMTOP
  0
POLYLINE
  8
SMBOT
 66
1
 70
1
 40
0.03000000000000001
 41
0.03000000000000001
  0
VERTEX
  8
SMBOT
 10
-0.015
 20
  0
 42
  1
  0
VERTEX
  8
SMBOT
 10
0.015
 20
  0
 42
  1
  0
SEQEND
  8
SMBOT
  0
POLYLINE
  8
DRLDWG
 66
1
 70
1
 40
0.01750000000000001
 41
0.01750000000000001
  0
VERTEX
  8
DRLDWG
 10
-0.008750000000000003
 20
  0
 42
  1
  0
VERTEX
  8
DRLDWG
 10
0.008750000000000003
 20
  0
 42
  1
  0
SEQEND
  8
DRLDWG
  0
POLYLINE
  8
DRILL
 66
1
 70
1
 40
0.01750000000000001
 41
0.01750000000000001
  0
VERTEX
  8
DRILL
 10
-0.008750000000000003
 20
  0
 42
  1
  0
VERTEX
  8
DRILL
 10
0.008750000000000003
 20
  0
 42
  1
  0
SEQEND
  8
DRILL
  0
POLYLINE
  8
FABDWG
 66
1
 70
1
 40
0.01750000000000001
 41
0.01750000000000001
  0
VERTEX
  8
FABDWG
 10
-0.008750000000000003
 20
  0
 42
  1
  0
VERTEX
  8
FABDWG
 10
0.008750000000000003
 20
  0
 42
  1
  0
SEQEND
  8
FABDWG
  0
POLYLINE
  8
NOTES
 66
1
 70
1
 40
0.01750000000000001
 41
0.01750000000000001
  0
VERTEX
  8
NOTES
 10
-0.008750000000000003
 20
  0
 42
  1
  0
VERTEX
  8
NOTES
 10
0.008750000000000003
 20
  0
 42
  1
  0
SEQEND
  8
NOTES
  0
ENDBLK
  0
BLOCK
  8
0
  2
padstack_DIP100T_llb_pad1
 10
0.0
 20
0.0
 30
0.0
 70
2
  0
POINT
  8
0
 10
  0
 20
  0
  0
POLYLINE
  8
TOP
 66
1
 70
0
 40
0.05800000000000002
 41
0.05800000000000002
  0
VERTEX
  8
TOP
 10
-0.02900000000000001
 20
  0
  0
VERTEX
  8
TOP
 10
0.02900000000000001
 20
  0
  0
SEQEND
  8
TOP
  0
POLYLINE
  8
BOTTOM
 66
1
 70
0
 40
0.05800000000000002
 41
0.05800000000000002
  0
VERTEX
  8
BOTTOM
 10
-0.02900000000000001
 20
  0
  0
VERTEX
  8
BOTTOM
 10
0.02900000000000001
 20
  0
  0
SEQEND
  8
BOTTOM
  0
POLYLINE
  8
GND
 66
1
 70
0
 40
0.07800000000000001
 41
0.07800000000000001
  0
VERTEX
  8
GND
 10
-0.03900000000000001
 20
  0
  0
VERTEX
  8
GND
 10
0.03900000000000001
 20
  0
  0
SEQEND
  8
GND
  0
POLYLINE
  8
POWER
 66
1
 70
0
 40
0.07800000000000001
 41
0.07800000000000001
  0
VERTEX
  8
POWER
 10
-0.03900000000000001
 20
  0
  0
VERTEX
  8
POWER
 10
0.03900000000000001
 20
  0
  0
SEQEND
  8
POWER
  0
POLYLINE
  8
INNER1
 66
1
 70
0
 40
0.05800000000000002
 41
0.05800000000000002
  0
VERTEX
  8
INNER1
 10
-0.02900000000000001
 20
  0
  0
VERTEX
  8
INNER1
 10
0.02900000000000001
 20
  0
  0
SEQEND
  8
INNER1
  0
POLYLINE
  8
INNER2
 66
1
 70
0
 40
0.05800000000000002
 41
0.05800000000000002
  0
VERTEX
  8
INNER2
 10
-0.02900000000000001
 20
  0
  0
VERTEX
  8
INNER2
 10
0.02900000000000001
 20
  0
  0
SEQEND
  8
INNER2
  0
POLYLINE
  8
INNER3
 66
1
 70
0
 40
0.05800000000000002
 41
0.05800000000000002
  0
VERTEX
  8
INNER3
 10
-0.02900000000000001
 20
  0
  0
VERTEX
  8
INNER3
 10
0.02900000000000001
 20
  0
  0
SEQEND
  8
INNER3
  0
POLYLINE
  8
INNER4
 66
1
 70
0
 40
0.05800000000000002
 41
0.05800000000000002
  0
VERTEX
  8
INNER4
 10
-0.02900000000000001
 20
  0
  0
VERTEX
  8
INNER4
 10
0.02900000000000001
 20
  0
  0
SEQEND
  8
INNER4
  0
POLYLINE
  8
INNER5
 66
1
 70
0
 40
0.05800000000000002
 41
0.05800000000000002
  0
VERTEX
  8
INNER5
 10
-0.02900000000000001
 20
  0
  0
VERTEX
  8
INNER5
 10
0.02900000000000001
 20
  0
  0
SEQEND
  8
INNER5
  0
POLYLINE
  8
INNER6
 66
1
 70
0
 40
0.05800000000000002
 41
0.05800000000000002
  0
VERTEX
  8
INNER6
 10
-0.02900000000000001
 20
  0
  0
VERTEX
  8
INNER6
 10
0.02900000000000001
 20
  0
  0
SEQEND
  8
INNER6
  0
POLYLINE
  8
INNER7
 66
1
 70
0
 40
0.05800000000000002
 41
0.05800000000000002
  0
VERTEX
  8
INNER7
 10
-0.02900000000000001
 20
  0
  0
VERTEX
  8
INNER7
 10
0.02900000000000001
 20
  0
  0
SEQEND
  8
INNER7
  0
POLYLINE
  8
INNER8
 66
1
 70
0
 40
0.05800000000000002
 41
0.05800000000000002
  0
VERTEX
  8
INNER8
 10
-0.02900000000000001
 20
  0
  0
VERTEX
  8
INNER8
 10
0.02900000000000001
 20
  0
  0
SEQEND
  8
INNER8
  0
POLYLINE
  8
INNER9
 66
1
 70
0
 40
0.05800000000000002
 41
0.05800000000000002
  0
VERTEX
  8
INNER9
 10
-0.02900000000000001
 20
  0
  0
VERTEX
  8
INNER9
 10
0.02900000000000001
 20
  0
  0
SEQEND
  8
INNER9
  0
POLYLINE
  8
INNER10
 66
1
 70
0
 40
0.05800000000000002
 41
0.05800000000000002
  0
VERTEX
  8
INNER10
 10
-0.02900000000000001
 20
  0
  0
VERTEX
  8
INNER10
 10
0.02900000000000001
 20
  0
  0
SEQEND
  8
INNER10
  0
POLYLINE
  8
INNER11
 66
1
 70
0
 40
0.05800000000000002
 41
0.05800000000000002
  0
VERTEX
  8
INNER11
 10
-0.02900000000000001
 20
  0
  0
VERTEX
  8
INNER11
 10
0.02900000000000001
 20
  0
  0
SEQEND
  8
INNER11
  0
POLYLINE
  8
INNER12
 66
1
 70
0
 40
0.05800000000000002
 41
0.05800000000000002
  0
VERTEX
  8
INNER12
 10
-0.02900000000000001
 20
  0
  0
VERTEX
  8
INNER12
 10
0.02900000000000001
 20
  0
  0
SEQEND
  8
INNER12
  0
POLYLINE
  8
SMTOP
 66
1
 70
0
 40
0.05800000000000002
 41
0.05800000000000002
  0
VERTEX
  8
SMTOP
 10
-0.02900000000000001
 20
  0
  0
VERTEX
  8
SMTOP
 10
0.02900000000000001
 20
  0
  0
SEQEND
  8
SMTOP
  0
POLYLINE
  8
SMBOT
 66
1
 70
0
 40
0.05800000000000002
 41
0.05800000000000002
  0
VERTEX
  8
SMBOT
 10
-0.02900000000000001
 20
  0
  0
VERTEX
  8
SMBOT
 10
0.02900000000000001
 20
  0
  0
SEQEND
  8
SMBOT
  0
POLYLINE
  8
ASYTOP
 66
1
 70
0
 40
0.05800000000000002
 41
0.05800000000000002
  0
VERTEX
  8
ASYTOP
 10
-0.02900000000000001
 20
  0
  0
VERTEX
  8
ASYTOP
 10
0.02900000000000001
 20
  0
  0
SEQEND
  8
ASYTOP
  0
POLYLINE
  8
ASYBOT
 66
1
 70
0
 40
0.05800000000000002
 41
0.05800000000000002
  0
VERTEX
  8
ASYBOT
 10
-0.02900000000000001
 20
  0
  0
VERTEX
  8
ASYBOT
 10
0.02900000000000001
 20
  0
  0
SEQEND
  8
ASYBOT
  0
POLYLINE
  8
DRLDWG
 66
1
 70
1
 40
0.01700000000000001
 41
0.01700000000000001
  0
VERTEX
  8
DRLDWG
 10
-0.008500000000000002
 20
  0
 42
  1
  0
VERTEX
  8
DRLDWG
 10
0.008500000000000002
 20
  0
 42
  1
  0
SEQEND
  8
DRLDWG
  0
POLYLINE
  8
DRILL
 66
1
 70
1
 40
0.01700000000000001
 41
0.01700000000000001
  0
VERTEX
  8
DRILL
 10
-0.008500000000000002
 20
  0
 42
  1
  0
VERTEX
  8
DRILL
 10
0.008500000000000002
 20
  0
 42
  1
  0
SEQEND
  8
DRILL
  0
ENDBLK
  0
BLOCK
  8
0
  2
padstack_DIP100T_llb_pad2
 10
0.0
 20
0.0
 30
0.0
 70
2
  0
POINT
  8
0
 10
  0
 20
  0
  0
POLYLINE
  8
TOP
 66
1
 70
1
 40
0.02900000000000001
 41
0.02900000000000001
  0
VERTEX
  8
TOP
 10
-0.0145
 20
  0
 42
  1
  0
VERTEX
  8
TOP
 10
0.0145
 20
  0
 42
  1
  0
SEQEND
  8
TOP
  0
POLYLINE
  8
BOTTOM
 66
1
 70
1
 40
0.02900000000000001
 41
0.02900000000000001
  0
VERTEX
  8
BOTTOM
 10
-0.0145
 20
  0
 42
  1
  0
VERTEX
  8
BOTTOM
 10
0.0145
 20
  0
 42
  1
  0
SEQEND
  8
BOTTOM
  0
POLYLINE
  8
GND
 66
1
 70
1
 40
0.03900000000000001
 41
0.03900000000000001
  0
VERTEX
  8
GND
 10
-0.0195
 20
  0
 42
  1
  0
VERTEX
  8
GND
 10
0.0195
 20
  0
 42
  1
  0
SEQEND
  8
GND
  0
POLYLINE
  8
POWER
 66
1
 70
1
 40
0.03900000000000001
 41
0.03900000000000001
  0
VERTEX
  8
POWER
 10
-0.0195
 20
  0
 42
  1
  0
VERTEX
  8
POWER
 10
0.0195
 20
  0
 42
  1
  0
SEQEND
  8
POWER
  0
POLYLINE
  8
INNER1
 66
1
 70
1
 40
0.02900000000000001
 41
0.02900000000000001
  0
VERTEX
  8
INNER1
 10
-0.0145
 20
  0
 42
  1
  0
VERTEX
  8
INNER1
 10
0.0145
 20
  0
 42
  1
  0
SEQEND
  8
INNER1
  0
POLYLINE
  8
INNER2
 66
1
 70
1
 40
0.02900000000000001
 41
0.02900000000000001
  0
VERTEX
  8
INNER2
 10
-0.0145
 20
  0
 42
  1
  0
VERTEX
  8
INNER2
 10
0.0145
 20
  0
 42
  1
  0
SEQEND
  8
INNER2
  0
POLYLINE
  8
INNER3
 66
1
 70
1
 40
0.02900000000000001
 41
0.02900000000000001
  0
VERTEX
  8
INNER3
 10
-0.0145
 20
  0
 42
  1
  0
VERTEX
  8
INNER3
 10
0.0145
 20
  0
 42
  1
  0
SEQEND
  8
INNER3
  0
POLYLINE
  8
INNER4
 66
1
 70
1
 40
0.02900000000000001
 41
0.02900000000000001
  0
VERTEX
  8
INNER4
 10
-0.0145
 20
  0
 42
  1
  0
VERTEX
  8
INNER4
 10
0.0145
 20
  0
 42
  1
  0
SEQEND
  8
INNER4
  0
POLYLINE
  8
INNER5
 66
1
 70
1
 40
0.02900000000000001
 41
0.02900000000000001
  0
VERTEX
  8
INNER5
 10
-0.0145
 20
  0
 42
  1
  0
VERTEX
  8
INNER5
 10
0.0145
 20
  0
 42
  1
  0
SEQEND
  8
INNER5
  0
POLYLINE
  8
INNER6
 66
1
 70
1
 40
0.02900000000000001
 41
0.02900000000000001
  0
VERTEX
  8
INNER6
 10
-0.0145
 20
  0
 42
  1
  0
VERTEX
  8
INNER6
 10
0.0145
 20
  0
 42
  1
  0
SEQEND
  8
INNER6
  0
POLYLINE
  8
INNER7
 66
1
 70
1
 40
0.02900000000000001
 41
0.02900000000000001
  0
VERTEX
  8
INNER7
 10
-0.0145
 20
  0
 42
  1
  0
VERTEX
  8
INNER7
 10
0.0145
 20
  0
 42
  1
  0
SEQEND
  8
INNER7
  0
POLYLINE
  8
INNER8
 66
1
 70
1
 40
0.02900000000000001
 41
0.02900000000000001
  0
VERTEX
  8
INNER8
 10
-0.0145
 20
  0
 42
  1
  0
VERTEX
  8
INNER8
 10
0.0145
 20
  0
 42
  1
  0
SEQEND
  8
INNER8
  0
POLYLINE
  8
INNER9
 66
1
 70
1
 40
0.02900000000000001
 41
0.02900000000000001
  0
VERTEX
  8
INNER9
 10
-0.0145
 20
  0
 42
  1
  0
VERTEX
  8
INNER9
 10
0.0145
 20
  0
 42
  1
  0
SEQEND
  8
INNER9
  0
POLYLINE
  8
INNER10
 66
1
 70
1
 40
0.02900000000000001
 41
0.02900000000000001
  0
VERTEX
  8
INNER10
 10
-0.0145
 20
  0
 42
  1
  0
VERTEX
  8
INNER10
 10
0.0145
 20
  0
 42
  1
  0
SEQEND
  8
INNER10
  0
POLYLINE
  8
INNER11
 66
1
 70
1
 40
0.02900000000000001
 41
0.02900000000000001
  0
VERTEX
  8
INNER11
 10
-0.0145
 20
  0
 42
  1
  0
VERTEX
  8
INNER11
 10
0.0145
 20
  0
 42
  1
  0
SEQEND
  8
INNER11
  0
POLYLINE
  8
INNER12
 66
1
 70
1
 40
0.02900000000000001
 41
0.02900000000000001
  0
VERTEX
  8
INNER12
 10
-0.0145
 20
  0
 42
  1
  0
VERTEX
  8
INNER12
 10
0.0145
 20
  0
 42
  1
  0
SEQEND
  8
INNER12
  0
POLYLINE
  8
SMTOP
 66
1
 70
1
 40
0.02900000000000001
 41
0.02900000000000001
  0
VERTEX
  8
SMTOP
 10
-0.0145
 20
  0
 42
  1
  0
VERTEX
  8
SMTOP
 10
0.0145
 20
  0
 42
  1
  0
SEQEND
  8
SMTOP
  0
POLYLINE
  8
SMBOT
 66
1
 70
1
 40
0.02900000000000001
 41
0.02900000000000001
  0
VERTEX
  8
SMBOT
 10
-0.0145
 20
  0
 42
  1
  0
VERTEX
  8
SMBOT
 10
0.0145
 20
  0
 42
  1
  0
SEQEND
  8
SMBOT
  0
POLYLINE
  8
ASYTOP
 66
1
 70
1
 40
0.02900000000000001
 41
0.02900000000000001
  0
VERTEX
  8
ASYTOP
 10
-0.0145
 20
  0
 42
  1
  0
VERTEX
  8
ASYTOP
 10
0.0145
 20
  0
 42
  1
  0
SEQEND
  8
ASYTOP
  0
POLYLINE
  8
ASYBOT
 66
1
 70
1
 40
0.02900000000000001
 41
0.02900000000000001
  0
VERTEX
  8
ASYBOT
 10
-0.0145
 20
  0
 42
  1
  0
VERTEX
  8
ASYBOT
 10
0.0145
 20
  0
 42
  1
  0
SEQEND
  8
ASYBOT
  0
POLYLINE
  8
DRLDWG
 66
1
 70
1
 40
0.01700000000000001
 41
0.01700000000000001
  0
VERTEX
  8
DRLDWG
 10
-0.008500000000000002
 20
  0
 42
  1
  0
VERTEX
  8
DRLDWG
 10
0.008500000000000002
 20
  0
 42
  1
  0
SEQEND
  8
DRLDWG
  0
POLYLINE
  8
DRILL
 66
1
 70
1
 40
0.01700000000000001
 41
0.01700000000000001
  0
VERTEX
  8
DRILL
 10
-0.008500000000000002
 20
  0
 42
  1
  0
VERTEX
  8
DRILL
 10
0.008500000000000002
 20
  0
 42
  1
  0
SEQEND
  8
DRILL
  0
ENDBLK
  0
BLOCK
  8
0
  2
padstack_BCON100T_llb_pad3
 10
0.0
 20
0.0
 30
0.0
 70
2
  0
POINT
  8
0
 10
  0
 20
  0
  0
POLYLINE
  8
TOP
 66
1
 70
0
 40
0.06200000000000001
 41
0.06200000000000001
  0
VERTEX
  8
TOP
 10
-0.03100000000000001
 20
  0
  0
VERTEX
  8
TOP
 10
0.03100000000000001
 20
  0
  0
SEQEND
  8
TOP
  0
POLYLINE
  8
BOTTOM
 66
1
 70
0
 40
0.06200000000000001
 41
0.06200000000000001
  0
VERTEX
  8
BOTTOM
 10
-0.03100000000000001
 20
  0
  0
VERTEX
  8
BOTTOM
 10
0.03100000000000001
 20
  0
  0
SEQEND
  8
BOTTOM
  0
POLYLINE
  8
GND
 66
1
 70
0
 40
0.08200000000000002
 41
0.08200000000000002
  0
VERTEX
  8
GND
 10
-0.04100000000000001
 20
  0
  0
VERTEX
  8
GND
 10
0.04100000000000001
 20
  0
  0
SEQEND
  8
GND
  0
POLYLINE
  8
POWER
 66
1
 70
0
 40
0.08200000000000002
 41
0.08200000000000002
  0
VERTEX
  8
POWER
 10
-0.04100000000000001
 20
  0
  0
VERTEX
  8
POWER
 10
0.04100000000000001
 20
  0
  0
SEQEND
  8
POWER
  0
POLYLINE
  8
INNER1
 66
1
 70
0
 40
0.06200000000000001
 41
0.06200000000000001
  0
VERTEX
  8
INNER1
 10
-0.03100000000000001
 20
  0
  0
VERTEX
  8
INNER1
 10
0.03100000000000001
 20
  0
  0
SEQEND
  8
INNER1
  0
POLYLINE
  8
INNER2
 66
1
 70
0
 40
0.06200000000000001
 41
0.06200000000000001
  0
VERTEX
  8
INNER2
 10
-0.03100000000000001
 20
  0
  0
VERTEX
  8
INNER2
 10
0.03100000000000001
 20
  0
  0
SEQEND
  8
INNER2
  0
POLYLINE
  8
INNER3
 66
1
 70
0
 40
0.06200000000000001
 41
0.06200000000000001
  0
VERTEX
  8
INNER3
 10
-0.03100000000000001
 20
  0
  0
VERTEX
  8
INNER3
 10
0.03100000000000001
 20
  0
  0
SEQEND
  8
INNER3
  0
POLYLINE
  8
INNER4
 66
1
 70
0
 40
0.06200000000000001
 41
0.06200000000000001
  0
VERTEX
  8
INNER4
 10
-0.03100000000000001
 20
  0
  0
VERTEX
  8
INNER4
 10
0.03100000000000001
 20
  0
  0
SEQEND
  8
INNER4
  0
POLYLINE
  8
INNER5
 66
1
 70
0
 40
0.06200000000000001
 41
0.06200000000000001
  0
VERTEX
  8
INNER5
 10
-0.03100000000000001
 20
  0
  0
VERTEX
  8
INNER5
 10
0.03100000000000001
 20
  0
  0
SEQEND
  8
INNER5
  0
POLYLINE
  8
INNER6
 66
1
 70
0
 40
0.06200000000000001
 41
0.06200000000000001
  0
VERTEX
  8
INNER6
 10
-0.03100000000000001
 20
  0
  0
VERTEX
  8
INNER6
 10
0.03100000000000001
 20
  0
  0
SEQEND
  8
INNER6
  0
POLYLINE
  8
INNER7
 66
1
 70
0
 40
0.06200000000000001
 41
0.06200000000000001
  0
VERTEX
  8
INNER7
 10
-0.03100000000000001
 20
  0
  0
VERTEX
  8
INNER7
 10
0.03100000000000001
 20
  0
  0
SEQEND
  8
INNER7
  0
POLYLINE
  8
INNER8
 66
1
 70
0
 40
0.06200000000000001
 41
0.06200000000000001
  0
VERTEX
  8
INNER8
 10
-0.03100000000000001
 20
  0
  0
VERTEX
  8
INNER8
 10
0.03100000000000001
 20
  0
  0
SEQEND
  8
INNER8
  0
POLYLINE
  8
INNER9
 66
1
 70
0
 40
0.06200000000000001
 41
0.06200000000000001
  0
VERTEX
  8
INNER9
 10
-0.03100000000000001
 20
  0
  0
VERTEX
  8
INNER9
 10
0.03100000000000001
 20
  0
  0
SEQEND
  8
INNER9
  0
POLYLINE
  8
INNER10
 66
1
 70
0
 40
0.06200000000000001
 41
0.06200000000000001
  0
VERTEX
  8
INNER10
 10
-0.03100000000000001
 20
  0
  0
VERTEX
  8
INNER10
 10
0.03100000000000001
 20
  0
  0
SEQEND
  8
INNER10
  0
POLYLINE
  8
INNER11
 66
1
 70
0
 40
0.06200000000000001
 41
0.06200000000000001
  0
VERTEX
  8
INNER11
 10
-0.03100000000000001
 20
  0
  0
VERTEX
  8
INNER11
 10
0.03100000000000001
 20
  0
  0
SEQEND
  8
INNER11
  0
POLYLINE
  8
INNER12
 66
1
 70
0
 40
0.06200000000000001
 41
0.06200000000000001
  0
VERTEX
  8
INNER12
 10
-0.03100000000000001
 20
  0
  0
VERTEX
  8
INNER12
 10
0.03100000000000001
 20
  0
  0
SEQEND
  8
INNER12
  0
POLYLINE
  8
SMTOP
 66
1
 70
0
 40
0.06200000000000001
 41
0.06200000000000001
  0
VERTEX
  8
SMTOP
 10
-0.03100000000000001
 20
  0
  0
VERTEX
  8
SMTOP
 10
0.03100000000000001
 20
  0
  0
SEQEND
  8
SMTOP
  0
POLYLINE
  8
SMBOT
 66
1
 70
0
 40
0.06200000000000001
 41
0.06200000000000001
  0
VERTEX
  8
SMBOT
 10
-0.03100000000000001
 20
  0
  0
VERTEX
  8
SMBOT
 10
0.03100000000000001
 20
  0
  0
SEQEND
  8
SMBOT
  0
POLYLINE
  8
ASYTOP
 66
1
 70
0
 40
0.06200000000000001
 41
0.06200000000000001
  0
VERTEX
  8
ASYTOP
 10
-0.03100000000000001
 20
  0
  0
VERTEX
  8
ASYTOP
 10
0.03100000000000001
 20
  0
  0
SEQEND
  8
ASYTOP
  0
POLYLINE
  8
ASYBOT
 66
1
 70
0
 40
0.06200000000000001
 41
0.06200000000000001
  0
VERTEX
  8
ASYBOT
 10
-0.03100000000000001
 20
  0
  0
VERTEX
  8
ASYBOT
 10
0.03100000000000001
 20
  0
  0
SEQEND
  8
ASYBOT
  0
POLYLINE
  8
DRLDWG
 66
1
 70
1
 40
0.02100000000000001
 41
0.02100000000000001
  0
VERTEX
  8
DRLDWG
 10
-0.0105
 20
  0
 42
  1
  0
VERTEX
  8
DRLDWG
 10
0.0105
 20
  0
 42
  1
  0
SEQEND
  8
DRLDWG
  0
POLYLINE
  8
DRILL
 66
1
 70
1
 40
0.02100000000000001
 41
0.02100000000000001
  0
VERTEX
  8
DRILL
 10
-0.0105
 20
  0
 42
  1
  0
VERTEX
  8
DRILL
 10
0.0105
 20
  0
 42
  1
  0
SEQEND
  8
DRILL
  0
ENDBLK
  0
BLOCK
  8
0
  2
padstack_BCON100T_llb_pad4
 10
0.0
 20
0.0
 30
0.0
 70
2
  0
POINT
  8
0
 10
  0
 20
  0
  0
POLYLINE
  8
TOP
 66
1
 70
1
 40
0.03100000000000001
 41
0.03100000000000001
  0
VERTEX
  8
TOP
 10
-0.0155
 20
  0
 42
  1
  0
VERTEX
  8
TOP
 10
0.0155
 20
  0
 42
  1
  0
SEQEND
  8
TOP
  0
POLYLINE
  8
BOTTOM
 66
1
 70
1
 40
0.03100000000000001
 41
0.03100000000000001
  0
VERTEX
  8
BOTTOM
 10
-0.0155
 20
  0
 42
  1
  0
VERTEX
  8
BOTTOM
 10
0.0155
 20
  0
 42
  1
  0
SEQEND
  8
BOTTOM
  0
POLYLINE
  8
GND
 66
1
 70
1
 40
0.04100000000000001
 41
0.04100000000000001
  0
VERTEX
  8
GND
 10
-0.0205
 20
  0
 42
  1
  0
VERTEX
  8
GND
 10
0.0205
 20
  0
 42
  1
  0
SEQEND
  8
GND
  0
POLYLINE
  8
POWER
 66
1
 70
1
 40
0.04100000000000001
 41
0.04100000000000001
  0
VERTEX
  8
POWER
 10
-0.0205
 20
  0
 42
  1
  0
VERTEX
  8
POWER
 10
0.0205
 20
  0
 42
  1
  0
SEQEND
  8
POWER
  0
POLYLINE
  8
INNER1
 66
1
 70
1
 40
0.03100000000000001
 41
0.03100000000000001
  0
VERTEX
  8
INNER1
 10
-0.0155
 20
  0
 42
  1
  0
VERTEX
  8
INNER1
 10
0.0155
 20
  0
 42
  1
  0
SEQEND
  8
INNER1
  0
POLYLINE
  8
INNER2
 66
1
 70
1
 40
0.03100000000000001
 41
0.03100000000000001
  0
VERTEX
  8
INNER2
 10
-0.0155
 20
  0
 42
  1
  0
VERTEX
  8
INNER2
 10
0.0155
 20
  0
 42
  1
  0
SEQEND
  8
INNER2
  0
POLYLINE
  8
INNER3
 66
1
 70
1
 40
0.03100000000000001
 41
0.03100000000000001
  0
VERTEX
  8
INNER3
 10
-0.0155
 20
  0
 42
  1
  0
VERTEX
  8
INNER3
 10
0.0155
 20
  0
 42
  1
  0
SEQEND
  8
INNER3
  0
POLYLINE
  8
INNER4
 66
1
 70
1
 40
0.03100000000000001
 41
0.03100000000000001
  0
VERTEX
  8
INNER4
 10
-0.0155
 20
  0
 42
  1
  0
VERTEX
  8
INNER4
 10
0.0155
 20
  0
 42
  1
  0
SEQEND
  8
INNER4
  0
POLYLINE
  8
INNER5
 66
1
 70
1
 40
0.03100000000000001
 41
0.03100000000000001
  0
VERTEX
  8
INNER5
 10
-0.0155
 20
  0
 42
  1
  0
VERTEX
  8
INNER5
 10
0.0155
 20
  0
 42
  1
  0
SEQEND
  8
INNER5
  0
POLYLINE
  8
INNER6
 66
1
 70
1
 40
0.03100000000000001
 41
0.03100000000000001
  0
VERTEX
  8
INNER6
 10
-0.0155
 20
  0
 42
  1
  0
VERTEX
  8
INNER6
 10
0.0155
 20
  0
 42
  1
  0
SEQEND
  8
INNER6
  0
POLYLINE
  8
INNER7
 66
1
 70
1
 40
0.03100000000000001
 41
0.03100000000000001
  0
VERTEX
  8
INNER7
 10
-0.0155
 20
  0
 42
  1
  0
VERTEX
  8
INNER7
 10
0.0155
 20
  0
 42
  1
  0
SEQEND
  8
INNER7
  0
POLYLINE
  8
INNER8
 66
1
 70
1
 40
0.03100000000000001
 41
0.03100000000000001
  0
VERTEX
  8
INNER8
 10
-0.0155
 20
  0
 42
  1
  0
VERTEX
  8
INNER8
 10
0.0155
 20
  0
 42
  1
  0
SEQEND
  8
INNER8
  0
POLYLINE
  8
INNER9
 66
1
 70
1
 40
0.03100000000000001
 41
0.03100000000000001
  0
VERTEX
  8
INNER9
 10
-0.0155
 20
  0
 42
  1
  0
VERTEX
  8
INNER9
 10
0.0155
 20
  0
 42
  1
  0
SEQEND
  8
INNER9
  0
POLYLINE
  8
INNER10
 66
1
 70
1
 40
0.03100000000000001
 41
0.03100000000000001
  0
VERTEX
  8
INNER10
 10
-0.0155
 20
  0
 42
  1
  0
VERTEX
  8
INNER10
 10
0.0155
 20
  0
 42
  1
  0
SEQEND
  8
INNER10
  0
POLYLINE
  8
INNER11
 66
1
 70
1
 40
0.03100000000000001
 41
0.03100000000000001
  0
VERTEX
  8
INNER11
 10
-0.0155
 20
  0
 42
  1
  0
VERTEX
  8
INNER11
 10
0.0155
 20
  0
 42
  1
  0
SEQEND
  8
INNER11
  0
POLYLINE
  8
INNER12
 66
1
 70
1
 40
0.03100000000000001
 41
0.03100000000000001
  0
VERTEX
  8
INNER12
 10
-0.0155
 20
  0
 42
  1
  0
VERTEX
  8
INNER12
 10
0.0155
 20
  0
 42
  1
  0
SEQEND
  8
INNER12
  0
POLYLINE
  8
SMTOP
 66
1
 70
1
 40
0.03100000000000001
 41
0.03100000000000001
  0
VERTEX
  8
SMTOP
 10
-0.0155
 20
  0
 42
  1
  0
VERTEX
  8
SMTOP
 10
0.0155
 20
  0
 42
  1
  0
SEQEND
  8
SMTOP
  0
POLYLINE
  8
SMBOT
 66
1
 70
1
 40
0.03100000000000001
 41
0.03100000000000001
  0
VERTEX
  8
SMBOT
 10
-0.0155
 20
  0
 42
  1
  0
VERTEX
  8
SMBOT
 10
0.0155
 20
  0
 42
  1
  0
SEQEND
  8
SMBOT
  0
POLYLINE
  8
ASYTOP
 66
1
 70
1
 40
0.03100000000000001
 41
0.03100000000000001
  0
VERTEX
  8
ASYTOP
 10
-0.0155
 20
  0
 42
  1
  0
VERTEX
  8
ASYTOP
 10
0.0155
 20
  0
 42
  1
  0
SEQEND
  8
ASYTOP
  0
POLYLINE
  8
ASYBOT
 66
1
 70
1
 40
0.03100000000000001
 41
0.03100000000000001
  0
VERTEX
  8
ASYBOT
 10
-0.0155
 20
  0
 42
  1
  0
VERTEX
  8
ASYBOT
 10
0.0155
 20
  0
 42
  1
  0
SEQEND
  8
ASYBOT
  0
POLYLINE
  8
DRLDWG
 66
1
 70
1
 40
0.02100000000000001
 41
0.02100000000000001
  0
VERTEX
  8
DRLDWG
 10
-0.0105
 20
  0
 42
  1
  0
VERTEX
  8
DRLDWG
 10
0.0105
 20
  0
 42
  1
  0
SEQEND
  8
DRLDWG
  0
POLYLINE
  8
DRILL
 66
1
 70
1
 40
0.02100000000000001
 41
0.02100000000000001
  0
VERTEX
  8
DRILL
 10
-0.0105
 20
  0
 42
  1
  0
VERTEX
  8
DRILL
 10
0.0105
 20
  0
 42
  1
  0
SEQEND
  8
DRILL
  0
ENDBLK
  0
BLOCK
  8
0
  2
padstack_BCON100T_llb_pad2
 10
0.0
 20
0.0
 30
0.0
 70
2
  0
POINT
  8
0
 10
  0
 20
  0
  0
POLYLINE
  8
TOP
 66
1
 70
0
 40
0.05800000000000002
 41
0.05800000000000002
  0
VERTEX
  8
TOP
 10
-0.02900000000000001
 20
  0
  0
VERTEX
  8
TOP
 10
0.02900000000000001
 20
  0
  0
SEQEND
  8
TOP
  0
POLYLINE
  8
BOTTOM
 66
1
 70
0
 40
0.05800000000000002
 41
0.05800000000000002
  0
VERTEX
  8
BOTTOM
 10
-0.02900000000000001
 20
  0
  0
VERTEX
  8
BOTTOM
 10
0.02900000000000001
 20
  0
  0
SEQEND
  8
BOTTOM
  0
POLYLINE
  8
GND
 66
1
 70
0
 40
0.07800000000000001
 41
0.07800000000000001
  0
VERTEX
  8
GND
 10
-0.03900000000000001
 20
  0
  0
VERTEX
  8
GND
 10
0.03900000000000001
 20
  0
  0
SEQEND
  8
GND
  0
POLYLINE
  8
POWER
 66
1
 70
0
 40
0.07800000000000001
 41
0.07800000000000001
  0
VERTEX
  8
POWER
 10
-0.03900000000000001
 20
  0
  0
VERTEX
  8
POWER
 10
0.03900000000000001
 20
  0
  0
SEQEND
  8
POWER
  0
POLYLINE
  8
INNER1
 66
1
 70
0
 40
0.05800000000000002
 41
0.05800000000000002
  0
VERTEX
  8
INNER1
 10
-0.02900000000000001
 20
  0
  0
VERTEX
  8
INNER1
 10
0.02900000000000001
 20
  0
  0
SEQEND
  8
INNER1
  0
POLYLINE
  8
INNER2
 66
1
 70
0
 40
0.05800000000000002
 41
0.05800000000000002
  0
VERTEX
  8
INNER2
 10
-0.02900000000000001
 20
  0
  0
VERTEX
  8
INNER2
 10
0.02900000000000001
 20
  0
  0
SEQEND
  8
INNER2
  0
POLYLINE
  8
INNER3
 66
1
 70
0
 40
0.05800000000000002
 41
0.05800000000000002
  0
VERTEX
  8
INNER3
 10
-0.02900000000000001
 20
  0
  0
VERTEX
  8
INNER3
 10
0.02900000000000001
 20
  0
  0
SEQEND
  8
INNER3
  0
POLYLINE
  8
INNER4
 66
1
 70
0
 40
0.05800000000000002
 41
0.05800000000000002
  0
VERTEX
  8
INNER4
 10
-0.02900000000000001
 20
  0
  0
VERTEX
  8
INNER4
 10
0.02900000000000001
 20
  0
  0
SEQEND
  8
INNER4
  0
POLYLINE
  8
INNER5
 66
1
 70
0
 40
0.05800000000000002
 41
0.05800000000000002
  0
VERTEX
  8
INNER5
 10
-0.02900000000000001
 20
  0
  0
VERTEX
  8
INNER5
 10
0.02900000000000001
 20
  0
  0
SEQEND
  8
INNER5
  0
POLYLINE
  8
INNER6
 66
1
 70
0
 40
0.05800000000000002
 41
0.05800000000000002
  0
VERTEX
  8
INNER6
 10
-0.02900000000000001
 20
  0
  0
VERTEX
  8
INNER6
 10
0.02900000000000001
 20
  0
  0
SEQEND
  8
INNER6
  0
POLYLINE
  8
INNER7
 66
1
 70
0
 40
0.05800000000000002
 41
0.05800000000000002
  0
VERTEX
  8
INNER7
 10
-0.02900000000000001
 20
  0
  0
VERTEX
  8
INNER7
 10
0.02900000000000001
 20
  0
  0
SEQEND
  8
INNER7
  0
POLYLINE
  8
INNER8
 66
1
 70
0
 40
0.05800000000000002
 41
0.05800000000000002
  0
VERTEX
  8
INNER8
 10
-0.02900000000000001
 20
  0
  0
VERTEX
  8
INNER8
 10
0.02900000000000001
 20
  0
  0
SEQEND
  8
INNER8
  0
POLYLINE
  8
INNER9
 66
1
 70
0
 40
0.05800000000000002
 41
0.05800000000000002
  0
VERTEX
  8
INNER9
 10
-0.02900000000000001
 20
  0
  0
VERTEX
  8
INNER9
 10
0.02900000000000001
 20
  0
  0
SEQEND
  8
INNER9
  0
POLYLINE
  8
INNER10
 66
1
 70
0
 40
0.05800000000000002
 41
0.05800000000000002
  0
VERTEX
  8
INNER10
 10
-0.02900000000000001
 20
  0
  0
VERTEX
  8
INNER10
 10
0.02900000000000001
 20
  0
  0
SEQEND
  8
INNER10
  0
POLYLINE
  8
INNER11
 66
1
 70
0
 40
0.05800000000000002
 41
0.05800000000000002
  0
VERTEX
  8
INNER11
 10
-0.02900000000000001
 20
  0
  0
VERTEX
  8
INNER11
 10
0.02900000000000001
 20
  0
  0
SEQEND
  8
INNER11
  0
POLYLINE
  8
INNER12
 66
1
 70
0
 40
0.05800000000000002
 41
0.05800000000000002
  0
VERTEX
  8
INNER12
 10
-0.02900000000000001
 20
  0
  0
VERTEX
  8
INNER12
 10
0.02900000000000001
 20
  0
  0
SEQEND
  8
INNER12
  0
POLYLINE
  8
SMTOP
 66
1
 70
0
 40
0.05800000000000002
 41
0.05800000000000002
  0
VERTEX
  8
SMTOP
 10
-0.02900000000000001
 20
  0
  0
VERTEX
  8
SMTOP
 10
0.02900000000000001
 20
  0
  0
SEQEND
  8
SMTOP
  0
POLYLINE
  8
SMBOT
 66
1
 70
0
 40
0.05800000000000002
 41
0.05800000000000002
  0
VERTEX
  8
SMBOT
 10
-0.02900000000000001
 20
  0
  0
VERTEX
  8
SMBOT
 10
0.02900000000000001
 20
  0
  0
SEQEND
  8
SMBOT
  0
POLYLINE
  8
ASYTOP
 66
1
 70
0
 40
0.05800000000000002
 41
0.05800000000000002
  0
VERTEX
  8
ASYTOP
 10
-0.02900000000000001
 20
  0
  0
VERTEX
  8
ASYTOP
 10
0.02900000000000001
 20
  0
  0
SEQEND
  8
ASYTOP
  0
POLYLINE
  8
ASYBOT
 66
1
 70
0
 40
0.05800000000000002
 41
0.05800000000000002
  0
VERTEX
  8
ASYBOT
 10
-0.02900000000000001
 20
  0
  0
VERTEX
  8
ASYBOT
 10
0.02900000000000001
 20
  0
  0
SEQEND
  8
ASYBOT
  0
POLYLINE
  8
DRLDWG
 66
1
 70
1
 40
0.01850000000000001
 41
0.01850000000000001
  0
VERTEX
  8
DRLDWG
 10
-0.009250000000000003
 20
  0
 42
  1
  0
VERTEX
  8
DRLDWG
 10
0.009250000000000003
 20
  0
 42
  1
  0
SEQEND
  8
DRLDWG
  0
POLYLINE
  8
DRILL
 66
1
 70
1
 40
0.01850000000000001
 41
0.01850000000000001
  0
VERTEX
  8
DRILL
 10
-0.009250000000000003
 20
  0
 42
  1
  0
VERTEX
  8
DRILL
 10
0.009250000000000003
 20
  0
 42
  1
  0
SEQEND
  8
DRILL
  0
ENDBLK
  0
BLOCK
  8
0
  2
footprint_VIA1
 10
0.0
 20
0.0
 30
0.0
 70
2
  0
INSERT
  8
PADSTACKS
  2
viastack_VIA1
 10
  0
 20
  0
 30
  0
 50
  0
 41
  1
 42
  1
 43
  1
  0
ENDBLK
  0
BLOCK
  8
0
  2
footprint_VIA2
 10
0.0
 20
0.0
 30
0.0
 70
2
  0
INSERT
  8
PADSTACKS
  2
viastack_VIA2
 10
  0
 20
  0
 30
  0
 50
  0
 41
  1
 42
  1
 43
  1
  0
ENDBLK
  0
BLOCK
  8
0
  2
footprint_VIA3
 10
0.0
 20
0.0
 30
0.0
 70
2
  0
INSERT
  8
PADSTACKS
  2
viastack_VIA3
 10
  0
 20
  0
 30
  0
 50
  0
 41
  1
 42
  1
 43
  1
  0
ENDBLK
  0
BLOCK
  8
0
  2
footprint_VIA4
 10
0.0
 20
0.0
 30
0.0
 70
2
  0
INSERT
  8
PADSTACKS
  2
viastack_VIA4
 10
  0
 20
  0
 30
  0
 50
  0
 41
  1
 42
  1
 43
  1
  0
ENDBLK
  0
BLOCK
  8
0
  2
footprint_VIA5
 10
0.0
 20
0.0
 30
0.0
 70
2
  0
INSERT
  8
PADSTACKS
  2
viastack_VIA5
 10
  0
 20
  0
 30
  0
 50
  0
 41
  1
 42
  1
 43
  1
  0
ENDBLK
  0
BLOCK
  8
0
  2
footprint_VIA6
 10
0.0
 20
0.0
 30
0.0
 70
2
  0
INSERT
  8
PADSTACKS
  2
viastack_VIA6
 10
  0
 20
  0
 30
  0
 50
  0
 41
  1
 42
  1
 43
  1
  0
ENDBLK
  0
BLOCK
  8
0
  2
footprint_VIA7
 10
0.0
 20
0.0
 30
0.0
 70
2
  0
INSERT
  8
PADSTACKS
  2
viastack_VIA7
 10
  0
 20
  0
 30
  0
 50
  0
 41
  1
 42
  1
 43
  1
  0
ENDBLK
  0
BLOCK
  8
0
  2
footprint_VIA8
 10
0.0
 20
0.0
 30
0.0
 70
2
  0
INSERT
  8
PADSTACKS
  2
viastack_VIA8
 10
  0
 20
  0
 30
  0
 50
  0
 41
  1
 42
  1
 43
  1
  0
ENDBLK
  0
BLOCK
  8
0
  2
footprint_VIA9
 10
0.0
 20
0.0
 30
0.0
 70
2
  0
INSERT
  8
PADSTACKS
  2
viastack_VIA9
 10
  0
 20
  0
 30
  0
 50
  0
 41
  1
 42
  1
 43
  1
  0
ENDBLK
  0
BLOCK
  8
0
  2
footprint_VIA10
 10
0.0
 20
0.0
 30
0.0
 70
2
  0
INSERT
  8
PADSTACKS
  2
viastack_VIA10
 10
  0
 20
  0
 30
  0
 50
  0
 41
  1
 42
  1
 43
  1
  0
ENDBLK
  0
BLOCK
  8
0
  2
footprint_VIA11
 10
0.0
 20
0.0
 30
0.0
 70
2
  0
INSERT
  8
PADSTACKS
  2
viastack_VIA11
 10
  0
 20
  0
 30
  0
 50
  0
 41
  1
 42
  1
 43
  1
  0
ENDBLK
  0
BLOCK
  8
0
  2
footprint_VIA12
 10
0.0
 20
0.0
 30
0.0
 70
2
  0
INSERT
  8
PADSTACKS
  2
viastack_VIA12
 10
  0
 20
  0
 30
  0
 50
  0
 41
  1
 42
  1
 43
  1
  0
ENDBLK
  0
BLOCK
  8
0
  2
footprint_VIA13
 10
0.0
 20
0.0
 30
0.0
 70
2
  0
INSERT
  8
PADSTACKS
  2
viastack_VIA13
 10
  0
 20
  0
 30
  0
 50
  0
 41
  1
 42
  1
 43
  1
  0
ENDBLK
  0
BLOCK
  8
0
  2
footprint_VIA14
 10
0.0
 20
0.0
 30
0.0
 70
2
  0
INSERT
  8
PADSTACKS
  2
viastack_VIA14
 10
  0
 20
  0
 30
  0
 50
  0
 41
  1
 42
  1
 43
  1
  0
ENDBLK
  0
BLOCK
  8
0
  2
footprint_VIA15
 10
0.0
 20
0.0
 30
0.0
 70
2
  0
INSERT
  8
PADSTACKS
  2
viastack_VIA15
 10
  0
 20
  0
 30
  0
 50
  0
 41
  1
 42
  1
 43
  1
  0
ENDBLK
  0
BLOCK
  8
0
  2
footprint_VIA16
 10
0.0
 20
0.0
 30
0.0
 70
2
  0
INSERT
  8
PADSTACKS
  2
viastack_VIA16
 10
  0
 20
  0
 30
  0
 50
  0
 41
  1
 42
  1
 43
  1
  0
ENDBLK
  0
BLOCK
  8
0
  2
footprint_DIP_14
 10
0.0
 20
0.0
 30
0.0
 70
2
  0
POLYLINE
  8
OBS_GLOBAL_LAYER
 66
1
 39
0.001
 70
1
 40
8.333333333333335e-006
 41
8.333333333333335e-006
  0
VERTEX
  8
OBS_GLOBAL_LAYER
 10
-0.05400000000000001
 20
-0.05400000000000001
  0
VERTEX
  8
OBS_GLOBAL_LAYER
 10
0.6540000000000001
 20
-0.05400000000000001
  0
VERTEX
  8
OBS_GLOBAL_LAYER
 10
0.6540000000000001
 20
0.3540000000000001
  0
VERTEX
  8
OBS_GLOBAL_LAYER
 10
-0.05400000000000001
 20
0.3540000000000001
  0
VERTEX
  8
OBS_GLOBAL_LAYER
 10
-0.05400000000000001
 20
-0.05400000000000001
  0
SEQEND
  8
OBS_GLOBAL_LAYER
  0
POLYLINE
  8
OBS_SSTOP
 66
1
 70
0
 40
0.008000000000000002
 41
0.008000000000000002
  0
VERTEX
  8
OBS_SSTOP
 10
-0.05000000000000001
 20
0.1
  0
VERTEX
  8
OBS_SSTOP
 10
-0.02500000000000001
 20
0.1
  0
VERTEX
  8
OBS_SSTOP
 10
-0.02500000000000001
 20
0.2
  0
VERTEX
  8
OBS_SSTOP
 10
-0.02500000000000001
 20
0.2
  0
VERTEX
  8
OBS_SSTOP
 10
-0.05000000000000001
 20
0.2
  0
VERTEX
  8
OBS_SSTOP
 10
-0.05000000000000001
 20
0.05000000000000001
  0
VERTEX
  8
OBS_SSTOP
 10
0.6500000000000001
 20
0.05000000000000001
  0
VERTEX
  8
OBS_SSTOP
 10
0.6500000000000001
 20
0.2500000000000001
  0
VERTEX
  8
OBS_SSTOP
 10
-0.05000000000000001
 20
0.2500000000000001
  0
VERTEX
  8
OBS_SSTOP
 10
-0.05000000000000001
 20
0.2
  0
SEQEND
  8
OBS_SSTOP
  0
POLYLINE
  8
OBS_ASYTOP
 66
1
 70
0
 40
0.008000000000000002
 41
0.008000000000000002
  0
VERTEX
  8
OBS_ASYTOP
 10
-0.05000000000000001
 20
0.1
  0
VERTEX
  8
OBS_ASYTOP
 10
-0.02500000000000001
 20
0.1
  0
VERTEX
  8
OBS_ASYTOP
 10
-0.02500000000000001
 20
0.2
  0
VERTEX
  8
OBS_ASYTOP
 10
-0.02500000000000001
 20
0.2
  0
VERTEX
  8
OBS_ASYTOP
 10
-0.05000000000000001
 20
0.2
  0
VERTEX
  8
OBS_ASYTOP
 10
-0.05000000000000001
 20
0.05000000000000001
  0
VERTEX
  8
OBS_ASYTOP
 10
0.6500000000000001
 20
0.05000000000000001
  0
VERTEX
  8
OBS_ASYTOP
 10
0.6500000000000001
 20
0.2500000000000001
  0
VERTEX
  8
OBS_ASYTOP
 10
-0.05000000000000001
 20
0.2500000000000001
  0
VERTEX
  8
OBS_ASYTOP
 10
-0.05000000000000001
 20
0.2
  0
SEQEND
  8
OBS_ASYTOP
  0
INSERT
  8
PADSTACKS
  2
padstack_DIP100T_llb_pad1
 10
  0
 20
  0
 30
  0
 50
  0
 41
  1
 42
  1
 43
  1
  0
INSERT
  8
PADSTACKS
  2
padstack_DIP100T_llb_pad2
 10
0.1
 20
  0
 30
  0
 50
  0
 41
  1
 42
  1
 43
  1
  0
INSERT
  8
PADSTACKS
  2
padstack_DIP100T_llb_pad2
 10
0.2
 20
  0
 30
  0
 50
  0
 41
  1
 42
  1
 43
  1
  0
INSERT
  8
PADSTACKS
  2
padstack_DIP100T_llb_pad2
 10
0.3000000000000001
 20
  0
 30
  0
 50
  0
 41
  1
 42
  1
 43
  1
  0
INSERT
  8
PADSTACKS
  2
padstack_DIP100T_llb_pad2
 10
0.4000000000000001
 20
  0
 30
  0
 50
  0
 41
  1
 42
  1
 43
  1
  0
INSERT
  8
PADSTACKS
  2
padstack_DIP100T_llb_pad2
 10
0.5000000000000001
 20
  0
 30
  0
 50
  0
 41
  1
 42
  1
 43
  1
  0
INSERT
  8
PADSTACKS
  2
padstack_DIP100T_llb_pad2
 10
0.6000000000000002
 20
  0
 30
  0
 50
  0
 41
  1
 42
  1
 43
  1
  0
INSERT
  8
PADSTACKS
  2
padstack_DIP100T_llb_pad2
 10
0.6000000000000002
 20
0.3000000000000001
 30
  0
 50
  0
 41
  1
 42
  1
 43
  1
  0
INSERT
  8
PADSTACKS
  2
padstack_DIP100T_llb_pad2
 10
0.5000000000000001
 20
0.3000000000000001
 30
  0
 50
  0
 41
  1
 42
  1
 43
  1
  0
INSERT
  8
PADSTACKS
  2
padstack_DIP100T_llb_pad2
 10
0.4000000000000001
 20
0.3000000000000001
 30
  0
 50
  0
 41
  1
 42
  1
 43
  1
  0
INSERT
  8
PADSTACKS
  2
padstack_DIP100T_llb_pad2
 10
0.3000000000000001
 20
0.3000000000000001
 30
  0
 50
  0
 41
  1
 42
  1
 43
  1
  0
INSERT
  8
PADSTACKS
  2
padstack_DIP100T_llb_pad2
 10
0.2
 20
0.3000000000000001
 30
  0
 50
  0
 41
  1
 42
  1
 43
  1
  0
INSERT
  8
PADSTACKS
  2
padstack_DIP100T_llb_pad2
 10
0.1
 20
0.3000000000000001
 30
  0
 50
  0
 41
  1
 42
  1
 43
  1
  0
INSERT
  8
PADSTACKS
  2
padstack_DIP100T_llb_pad2
 10
  0
 20
0.3000000000000001
 30
  0
 50
  0
 41
  1
 42
  1
 43
  1
  0
ENDBLK
  0
BLOCK
  8
0
  2
footprint_CON2
 10
0.0
 20
0.0
 30
0.0
 70
2
  0
POLYLINE
  8
OBS_GLOBAL_LAYER
 66
1
 39
0.001
 70
1
 40
8.333333333333335e-006
 41
8.333333333333335e-006
  0
VERTEX
  8
OBS_GLOBAL_LAYER
 10
-0.05900000000000002
 20
-0.05400000000000001
  0
VERTEX
  8
OBS_GLOBAL_LAYER
 10
0.159
 20
-0.05400000000000001
  0
VERTEX
  8
OBS_GLOBAL_LAYER
 10
0.159
 20
0.05400000000000001
  0
VERTEX
  8
OBS_GLOBAL_LAYER
 10
-0.05900000000000002
 20
0.05400000000000001
  0
VERTEX
  8
OBS_GLOBAL_LAYER
 10
-0.05900000000000002
 20
-0.05400000000000001
  0
SEQEND
  8
OBS_GLOBAL_LAYER
  0
POLYLINE
  8
OBS_SSTOP
 66
1
 70
0
 40
0.008000000000000002
 41
0.008000000000000002
  0
VERTEX
  8
OBS_SSTOP
 10
0.155
 20
-0.05000000000000001
  0
VERTEX
  8
OBS_SSTOP
 10
0.1
 20
-0.05000000000000001
  0
VERTEX
  8
OBS_SSTOP
 10
  0
 20
-0.05000000000000001
  0
VERTEX
  8
OBS_SSTOP
 10
-0.05500000000000001
 20
-0.05000000000000001
  0
VERTEX
  8
OBS_SSTOP
 10
-0.05500000000000001
 20
0.05000000000000001
  0
VERTEX
  8
OBS_SSTOP
 10
0.155
 20
0.05000000000000001
  0
VERTEX
  8
OBS_SSTOP
 10
0.155
 20
-0.05000000000000001
  0
SEQEND
  8
OBS_SSTOP
  0
POLYLINE
  8
OBS_ASYTOP
 66
1
 70
0
 40
0.008000000000000002
 41
0.008000000000000002
  0
VERTEX
  8
OBS_ASYTOP
 10
0.155
 20
-0.05000000000000001
  0
VERTEX
  8
OBS_ASYTOP
 10
0.1
 20
-0.05000000000000001
  0
VERTEX
  8
OBS_ASYTOP
 10
  0
 20
-0.05000000000000001
  0
VERTEX
  8
OBS_ASYTOP
 10
-0.05500000000000001
 20
-0.05000000000000001
  0
VERTEX
  8
OBS_ASYTOP
 10
-0.05500000000000001
 20
0.05000000000000001
  0
VERTEX
  8
OBS_ASYTOP
 10
0.155
 20
0.05000000000000001
  0
VERTEX
  8
OBS_ASYTOP
 10
0.155
 20
-0.05000000000000001
  0
SEQEND
  8
OBS_ASYTOP
  0
INSERT
  8
PADSTACKS
  2
padstack_BCON100T_llb_pad3
 10
  0
 20
  0
 30
  0
 50
  0
 41
  1
 42
  1
 43
  1
  0
INSERT
  8
PADSTACKS
  2
padstack_BCON100T_llb_pad4
 10
0.1
 20
  0
 30
  0
 50
  0
 41
  1
 42
  1
 43
  1
  0
TEXT
  8
SSTOP
 72
0
 10
-0.1138833333333334
 20
-0.03063333333333334
 30
  0
 40
0.03750000000000001
 50
  0
  1
1
  0
ENDBLK
  0
BLOCK
  8
0
  2
footprint_CON1
 10
0.0
 20
0.0
 30
0.0
 70
2
  0
POLYLINE
  8
OBS_SSTOP
 66
1
 70
0
 40
0.008000000000000002
 41
0.008000000000000002
  0
VERTEX
  8
OBS_SSTOP
 10
0.05000000000000001
 20
0.05000000000000001
  0
VERTEX
  8
OBS_SSTOP
 10
-0.05000000000000001
 20
0.05000000000000001
  0
VERTEX
  8
OBS_SSTOP
 10
-0.05000000000000001
 20
-0.05000000000000001
  0
VERTEX
  8
OBS_SSTOP
 10
0.05000000000000001
 20
-0.05000000000000001
  0
VERTEX
  8
OBS_SSTOP
 10
0.05000000000000001
 20
0.05000000000000001
  0
SEQEND
  8
OBS_SSTOP
  0
POLYLINE
  8
OBS_ASYTOP
 66
1
 70
0
 40
0.008000000000000002
 41
0.008000000000000002
  0
VERTEX
  8
OBS_ASYTOP
 10
0.05000000000000001
 20
0.05000000000000001
  0
VERTEX
  8
OBS_ASYTOP
 10
-0.05000000000000001
 20
0.05000000000000001
  0
VERTEX
  8
OBS_ASYTOP
 10
-0.05000000000000001
 20
-0.05000000000000001
  0
VERTEX
  8
OBS_ASYTOP
 10
0.05000000000000001
 20
-0.05000000000000001
  0
VERTEX
  8
OBS_ASYTOP
 10
0.05000000000000001
 20
0.05000000000000001
  0
SEQEND
  8
OBS_ASYTOP
  0
POLYLINE
  8
OBS_GLOBAL_LAYER
 66
1
 39
0.001
 70
1
 40
8.333333333333335e-006
 41
8.333333333333335e-006
  0
VERTEX
  8
OBS_GLOBAL_LAYER
 10
-0.05400000000000001
 20
-0.05400000000000001
  0
VERTEX
  8
OBS_GLOBAL_LAYER
 10
0.05400000000000001
 20
-0.05400000000000001
  0
VERTEX
  8
OBS_GLOBAL_LAYER
 10
0.05400000000000001
 20
0.05400000000000001
  0
VERTEX
  8
OBS_GLOBAL_LAYER
 10
-0.05400000000000001
 20
0.05400000000000001
  0
VERTEX
  8
OBS_GLOBAL_LAYER
 10
-0.05400000000000001
 20
-0.05400000000000001
  0
SEQEND
  8
OBS_GLOBAL_LAYER
  0
INSERT
  8
PADSTACKS
  2
padstack_BCON100T_llb_pad2
 10
  0
 20
  0
 30
  0
 50
  0
 41
  1
 42
  1
 43
  1
  0
ENDBLK
  0
BLOCK
  8
0
  2
footprint_DIP_14_U1
 10
0.0
 20
0.0
 30
0.0
 70
2
  0
INSERT
  8
PADSTACKS
  2
padstack_DIP100T_llb_pad1
 10
  0
 20
  0
 30
  0
 50
  0
 41
  1
 42
  1
 43
  1
  0
INSERT
  8
PADSTACKS
  2
padstack_DIP100T_llb_pad2
 10
0.1
 20
  0
 30
  0
 50
  0
 41
  1
 42
  1
 43
  1
  0
INSERT
  8
PADSTACKS
  2
padstack_DIP100T_llb_pad2
 10
0.2
 20
  0
 30
  0
 50
  0
 41
  1
 42
  1
 43
  1
  0
INSERT
  8
PADSTACKS
  2
padstack_DIP100T_llb_pad2
 10
0.3000000000000001
 20
  0
 30
  0
 50
  0
 41
  1
 42
  1
 43
  1
  0
INSERT
  8
PADSTACKS
  2
padstack_DIP100T_llb_pad2
 10
0.4000000000000001
 20
  0
 30
  0
 50
  0
 41
  1
 42
  1
 43
  1
  0
INSERT
  8
PADSTACKS
  2
padstack_DIP100T_llb_pad2
 10
0.5000000000000001
 20
  0
 30
  0
 50
  0
 41
  1
 42
  1
 43
  1
  0
INSERT
  8
PADSTACKS
  2
padstack_DIP100T_llb_pad2
 10
0.6000000000000002
 20
  0
 30
  0
 50
  0
 41
  1
 42
  1
 43
  1
  0
INSERT
  8
PADSTACKS
  2
padstack_DIP100T_llb_pad2
 10
0.6000000000000002
 20
0.3000000000000001
 30
  0
 50
  0
 41
  1
 42
  1
 43
  1
  0
INSERT
  8
PADSTACKS
  2
padstack_DIP100T_llb_pad2
 10
0.5000000000000001
 20
0.3000000000000001
 30
  0
 50
  0
 41
  1
 42
  1
 43
  1
  0
INSERT
  8
PADSTACKS
  2
padstack_DIP100T_llb_pad2
 10
0.4000000000000001
 20
0.3000000000000001
 30
  0
 50
  0
 41
  1
 42
  1
 43
  1
  0
INSERT
  8
PADSTACKS
  2
padstack_DIP100T_llb_pad2
 10
0.3000000000000001
 20
0.3000000000000001
 30
  0
 50
  0
 41
  1
 42
  1
 43
  1
  0
INSERT
  8
PADSTACKS
  2
padstack_DIP100T_llb_pad2
 10
0.2
 20
0.3000000000000001
 30
  0
 50
  0
 41
  1
 42
  1
 43
  1
  0
INSERT
  8
PADSTACKS
  2
padstack_DIP100T_llb_pad2
 10
0.1
 20
0.3000000000000001
 30
  0
 50
  0
 41
  1
 42
  1
 43
  1
  0
INSERT
  8
PADSTACKS
  2
padstack_DIP100T_llb_pad2
 10
  0
 20
0.3000000000000001
 30
  0
 50
  0
 41
  1
 42
  1
 43
  1
  0
ENDBLK
  0
BLOCK
  8
0
  2
footprint_CON2_J1
 10
0.0
 20
0.0
 30
0.0
 70
2
  0
INSERT
  8
PADSTACKS
  2
padstack_BCON100T_llb_pad3
 10
  0
 20
  0
 30
  0
 50
  0
 41
  1
 42
  1
 43
  1
  0
INSERT
  8
PADSTACKS
  2
padstack_BCON100T_llb_pad4
 10
0.1
 20
  0
 30
  0
 50
  0
 41
  1
 42
  1
 43
  1
  0
ENDBLK
  0
BLOCK
  8
0
  2
footprint_CON1_J5
 10
0.0
 20
0.0
 30
0.0
 70
2
  0
INSERT
  8
PADSTACKS
  2
padstack_BCON100T_llb_pad2
 10
  0
 20
  0
 30
  0
 50
  0
 41
  1
 42
  1
 43
  1
  0
ENDBLK
  0
BLOCK
  8
0
  2
footprint_CON1_J4
 10
0.0
 20
0.0
 30
0.0
 70
2
  0
INSERT
  8
PADSTACKS
  2
padstack_BCON100T_llb_pad2
 10
  0
 20
  0
 30
  0
 50
  0
 41
  1
 42
  1
 43
  1
  0
ENDBLK
  0
BLOCK
  8
0
  2
footprint_CON1_J2
 10
0.0
 20
0.0
 30
0.0
 70
2
  0
INSERT
  8
PADSTACKS
  2
padstack_BCON100T_llb_pad2
 10
  0
 20
  0
 30
  0
 50
  0
 41
  1
 42
  1
 43
  1
  0
ENDBLK
  0
BLOCK
  8
0
  2
footprint_CON1_J3
 10
0.0
 20
0.0
 30
0.0
 70
2
  0
INSERT
  8
PADSTACKS
  2
padstack_BCON100T_llb_pad2
 10
  0
 20
  0
 30
  0
 50
  0
 41
  1
 42
  1
 43
  1
  0
ENDBLK
  0
ENDSEC
  0
SECTION
  2
ENTITIES
  0
INSERT
  8
COMPONENTS_TOP
  66
1
  2
footprint_CON2_J1
 10
-0.5708166666666669
 20
1.12195
 30
  0
 50
 90
 41
  1
 42
  1
 43
  1
  0
ATTRIB
  8
ASYTOP
 70
0
 72
0
  1
J1
  2
COMP_NAME
 10
-0.4052000000000001
 20
1.0575
 30
  0
 40
0.03750000000000001
 50
 90
  0
SEQEND
  8
0
  0
INSERT
  8
COMPONENTS_TOP
  66
1
  2
footprint_CON1_J2
 10
-1.2991
 20
0.8857500000000003
 30
  0
 50
  0
 41
  1
 42
  1
 43
  1
  0
ATTRIB
  8
ASYTOP
 70
0
 72
0
  1
J2
  2
COMP_NAME
 10
-1.36855
 20
0.7051333333333335
 30
  0
 40
0.03750000000000001
 50
  0
  0
SEQEND
  8
0
  0
INSERT
  8
COMPONENTS_TOP
  66
1
  2
footprint_CON1_J3
 10
-1.102266666666667
 20
0.8857500000000003
 30
  0
 50
  0
 41
  1
 42
  1
 43
  1
  0
ATTRIB
  8
ASYTOP
 70
0
 72
0
  1
J3
  2
COMP_NAME
 10
-1.171716666666667
 20
0.7051333333333335
 30
  0
 40
0.03750000000000001
 50
  0
  0
SEQEND
  8
0
  0
INSERT
  8
COMPONENTS_TOP
  66
1
  2
footprint_CON1_J4
 10
-1.200683333333334
 20
1.436883333333334
 30
  0
 50
  0
 41
  1
 42
  1
 43
  1
  0
ATTRIB
  8
ASYTOP
 70
0
 72
0
  1
J4
  2
COMP_NAME
 10
-1.270133333333334
 20
1.256266666666667
 30
  0
 40
0.03750000000000001
 50
  0
  0
SEQEND
  8
0
  0
INSERT
  8
COMPONENTS_TOP
  66
1
  2
footprint_CON1_J5
 10
-1.00385
 20
1.436883333333334
 30
  0
 50
  0
 41
  1
 42
  1
 43
  1
  0
ATTRIB
  8
ASYTOP
 70
0
 72
0
  1
J5
  2
COMP_NAME
 10
-1.0733
 20
1.256266666666667
 30
  0
 40
0.03750000000000001
 50
  0
  0
SEQEND
  8
0
  0
INSERT
  8
COMPONENTS_TOP
  66
1
  2
footprint_DIP_14_U1
 10
-1.3
 20
  1
 30
  0
 50
  0
 41
  1
 42
  1
 43
  1
  0
ATTRIB
  8
ASYTOP
 70
0
 72
0
  1
U1
  2
COMP_NAME
 10
-1.06745
 20
1.174383333333334
 30
  0
 40
0.03750000000000001
 50
  0
  0
SEQEND
  8
0
  0
POLYLINE
  8
BOTTOM
 66
1
 70
0
 40
0.02755000000000001
 41
0.02755000000000001
  0
VERTEX
  8
BOTTOM
 10
-0.5708166666666669
 20
1.12195
  0
VERTEX
  8
BOTTOM
 10
-0.5780500000000002
 20
1.12195
  0
VERTEX
  8
BOTTOM
 10
-0.7000000000000002
 20
  1
  0
SEQEND
  8
BOTTOM
  0
POLYLINE
  8
BOTTOM
 66
1
 70
0
 40
0.02755000000000001
 41
0.02755000000000001
  0
VERTEX
  8
BOTTOM
 10
-0.9000000000000002
 20
  1
  0
VERTEX
  8
BOTTOM
 10
-0.9000000000000002
 20
0.7873333333333336
  0
VERTEX
  8
BOTTOM
 10
-1.181683333333334
 20
0.7873333333333336
  0
VERTEX
  8
BOTTOM
 10
-1.2
 20
0.8070166666666668
  0
VERTEX
  8
BOTTOM
 10
-1.2
 20
0.8702166666666669
  0
VERTEX
  8
BOTTOM
 10
-1.2
 20
  1
  0
SEQEND
  8
BOTTOM
  0
POLYLINE
  8
BOTTOM
 66
1
 70
0
 40
0.02755833333333334
 41
0.02755833333333334
  0
VERTEX
  8
BOTTOM
 10
-1.2991
 20
0.8857500000000003
  0
VERTEX
  8
BOTTOM
 10
-1.3
 20
0.8866500000000003
  0
VERTEX
  8
BOTTOM
 10
-1.3
 20
  1
  0
SEQEND
  8
BOTTOM
  0
POLYLINE
  8
BOTTOM
 66
1
 70
0
 40
0.02755833333333334
 41
0.02755833333333334
  0
VERTEX
  8
BOTTOM
 10
 -1
 20
1.3
  0
VERTEX
  8
BOTTOM
 10
 -1
 20
1.433033333333334
  0
VERTEX
  8
BOTTOM
 10
-1.00385
 20
1.436883333333334
  0
SEQEND
  8
BOTTOM
  0
POLYLINE
  8
BOTTOM
 66
1
 70
0
 40
0.02755833333333334
 41
0.02755833333333334
  0
VERTEX
  8
BOTTOM
 10
-1.102266666666667
 20
0.8857500000000003
  0
VERTEX
  8
BOTTOM
 10
-1.1
 20
0.8880166666666669
  0
VERTEX
  8
BOTTOM
 10
-1.1
 20
  1
  0
SEQEND
  8
BOTTOM
  0
POLYLINE
  8
BOTTOM
 66
1
 70
0
 40
0.02755000000000001
 41
0.02755000000000001
  0
VERTEX
  8
BOTTOM
 10
-0.8000000000000002
 20
1.3
  0
VERTEX
  8
BOTTOM
 10
-0.7785000000000002
 20
1.3
  0
VERTEX
  8
BOTTOM
 10
-0.7785000000000002
 20
1.506683333333334
  0
VERTEX
  8
BOTTOM
 10
-0.7907166666666669
 20
1.5189
  0
VERTEX
  8
BOTTOM
 10
-1.1
 20
1.5189
  0
VERTEX
  8
BOTTOM
 10
-1.1
 20
1.3
  0
SEQEND
  8
BOTTOM
  0
POLYLINE
  8
BOTTOM
 66
1
 70
0
 40
0.02755833333333334
 41
0.02755833333333334
  0
VERTEX
  8
BOTTOM
 10
-1.2
 20
1.3
  0
VERTEX
  8
BOTTOM
 10
-1.2
 20
1.4362
  0
VERTEX
  8
BOTTOM
 10
-1.200683333333334
 20
1.436883333333334
  0
SEQEND
  8
BOTTOM
  0
POLYLINE
  8
BOTTOM
 66
1
 70
0
 40
0.02755833333333334
 41
0.02755833333333334
  0
VERTEX
  8
BOTTOM
 10
 -1
 20
  1
  0
VERTEX
  8
BOTTOM
 10
 -1
 20
1.0689
  0
VERTEX
  8
BOTTOM
 10
-0.986316666666667
 20
1.082583333333334
  0
VERTEX
  8
BOTTOM
 10
-0.8660666666666669
 20
1.082583333333334
  0
VERTEX
  8
BOTTOM
 10
-0.8660666666666669
 20
1.066066666666667
  0
VERTEX
  8
BOTTOM
 10
-0.8000000000000002
 20
  1
  0
SEQEND
  8
BOTTOM
  0
POLYLINE
  8
BOTTOM
 66
1
 70
0
 40
0.02755833333333334
 41
0.02755833333333334
  0
VERTEX
  8
BOTTOM
 10
 -1
 20
  1
  0
VERTEX
  8
BOTTOM
 10
 -1
 20
1.0689
  0
VERTEX
  8
BOTTOM
 10
-0.9409500000000003
 20
1.12795
  0
VERTEX
  8
BOTTOM
 10
-0.9409500000000003
 20
1.187
  0
VERTEX
  8
BOTTOM
 10
-0.9000000000000002
 20
1.22795
  0
VERTEX
  8
BOTTOM
 10
-0.9000000000000002
 20
1.3
  0
SEQEND
  8
BOTTOM
  0
POLYLINE
  8
BOTTOM
 66
1
 70
0
 40
0.02755000000000001
 41
0.02755000000000001
  0
VERTEX
  8
BOTTOM
 10
-1.3
 20
1.3
  0
VERTEX
  8
BOTTOM
 10
-1.3
 20
1.3189
  0
VERTEX
  8
BOTTOM
 10
-1.2785
 20
1.3189
  0
VERTEX
  8
BOTTOM
 10
-1.2785
 20
1.200683333333334
  0
VERTEX
  8
BOTTOM
 10
-0.9000000000000002
 20
1.200683333333334
  0
VERTEX
  8
BOTTOM
 10
-0.9000000000000002
 20
1.2689
  0
VERTEX
  8
BOTTOM
 10
-0.9000000000000002
 20
1.3
  0
SEQEND
  8
BOTTOM
  0
POLYLINE
  8
BOTTOM
 66
1
 70
0
 40
0.02755833333333334
 41
0.02755833333333334
  0
VERTEX
  8
BOTTOM
 10
-0.7000000000000002
 20
1.3
  0
VERTEX
  8
BOTTOM
 10
-0.7000000000000002
 20
1.2689
  0
VERTEX
  8
BOTTOM
 10
-0.6785000000000002
 20
1.2689
  0
VERTEX
  8
BOTTOM
 10
-0.6785000000000002
 20
1.175
  0
VERTEX
  8
BOTTOM
 10
-0.6315500000000002
 20
1.22195
  0
VERTEX
  8
BOTTOM
 10
-0.5708166666666669
 20
1.22195
  0
SEQEND
  8
BOTTOM
  0
POLYLINE
  8
BOTTOM
 66
1
 70
0
 40
0.02755000000000001
 41
0.02755000000000001
  0
VERTEX
  8
BOTTOM
 10
-0.5708166666666669
 20
1.22195
  0
VERTEX
  8
BOTTOM
 10
-0.6004500000000002
 20
1.22195
  0
VERTEX
  8
BOTTOM
 10
-0.6315500000000002
 20
1.22195
  0
VERTEX
  8
BOTTOM
 10
-0.6785000000000002
 20
1.175
  0
VERTEX
  8
BOTTOM
 10
-0.7346000000000001
 20
1.1189
  0
VERTEX
  8
BOTTOM
 10
-0.7500000000000002
 20
1.1189
  0
VERTEX
  8
BOTTOM
 10
-0.7785000000000002
 20
1.0904
  0
VERTEX
  8
BOTTOM
 10
-0.8392500000000002
 20
1.02965
  0
VERTEX
  8
BOTTOM
 10
-0.7785000000000002
 20
0.9689000000000002
  0
VERTEX
  8
BOTTOM
 10
-0.8000000000000002
 20
0.9689000000000002
  0
VERTEX
  8
BOTTOM
 10
-0.8000000000000002
 20
  1
  0
SEQEND
  8
BOTTOM
  0
TEXT
  8
BOTTOM
 72
0
 10
-0.5905000000000001
 20
1.24005
 30
  0
 40
0.05625000000000002
 50
  0
  1
-
  0
TEXT
  8
BOTTOM
 72
0
 10
-0.9448000000000002
 20
1.377833333333334
 30
  0
 40
0.05625000000000002
 50
  0
  1
IN
  0
TEXT
  8
BOTTOM
 72
0
 10
-1.141633333333334
 20
1.043216666666667
 30
  0
 40
0.05610000000000001
 50
  0
  1
IN
  0
TEXT
  8
BOTTOM
 72
0
 10
-1.338466666666667
 20
1.47625
 30
  0
 40
0.05625000000000002
 50
  0
  1
OUT
  0
TEXT
  8
BOTTOM
 72
0
 10
-1.35815
 20
1.043216666666667
 30
  0
 40
0.05625000000000002
 50
  0
  1
OUT
  0
TEXT
  8
BOTTOM
 72
0
 10
-0.5314500000000001
 20
0.7873333333333336
 30
  0
 40
0.05625000000000002
 50
  0
 71
2
  1
FLOP
  0
TEXT
  8
BOTTOM
 72
0
 10
-0.5314500000000001
 20
0.8660666666666669
 30
  0
 40
0.05625000000000002
 50
  0
 71
2
  1
FLIP
  0
TEXT
  8
BOTTOM
 72
0
 10
-0.5905000000000001
 20
0.984166666666667
 30
  0
 40
0.05625000000000002
 50
  0
  1
+
  0
TEXT
  8
DRLDWG
 72
0
 10
1.347925
 20
-0.175
 30
  0
 40
0.1125
 50
  0
  1
DRILL CHART
  0
TEXT
  8
DRLDWG
 72
0
 10
0.05000000000000001
 20
-0.3750000000000001
 30
  0
 40
0.1125
 50
  0
  1
SYM
  0
TEXT
  8
DRLDWG
 72
0
 10
0.6154166666666668
 20
-0.3750000000000001
 30
  0
 40
0.1125
 50
  0
  1
DIAM
  0
TEXT
  8
DRLDWG
 72
0
 10
1.484166666666667
 20
-0.3750000000000001
 30
  0
 40
0.1125
 50
  0
  1
TOL
  0
TEXT
  8
DRLDWG
 72
0
 10
2.160833333333334
 20
-0.3750000000000001
 30
  0
 40
0.1125
 50
  0
  1
QTY
  0
TEXT
  8
DRLDWG
 72
0
 10
2.967908333333334
 20
-0.3750000000000001
 30
  0
 40
0.1125
 50
  0
  1
NOTE
  0
TEXT
  8
DRLDWG
 72
0
 10
0.5663916666666669
 20
-0.5250000000000001
 30
  0
 40
0.07500000000000003
 50
  0
  1
0.864 mm
  0
TEXT
  8
DRLDWG
 72
0
 10
2.361950000000001
 20
-0.5250000000000001
 30
  0
 40
0.07500000000000003
 50
  0
  1
14
  0
TEXT
  8
DRLDWG
 72
0
 10
0.5663916666666669
 20
-0.6750000000000002
 30
  0
 40
0.07500000000000003
 50
  0
  1
0.940 mm
  0
TEXT
  8
DRLDWG
 72
0
 10
2.420833333333334
 20
-0.6750000000000002
 30
  0
 40
0.07500000000000003
 50
  0
  1
4
  0
TEXT
  8
DRLDWG
 72
0
 10
0.5775083333333335
 20
-0.8250000000000002
 30
  0
 40
0.07500000000000003
 50
  0
  1
1.067 mm
  0
TEXT
  8
DRLDWG
 72
0
 10
2.420833333333334
 20
-0.8250000000000002
 30
  0
 40
0.07500000000000003
 50
  0
  1
2
  0
TEXT
  8
DRLDWG
 72
0
 10
0.7845833333333335
 20
-1.025
 30
  0
 40
0.1125
 50
  0
  1
TOTAL
  0
TEXT
  8
DRLDWG
 72
0
 10
2.300833333333334
 20
-1.025
 30
  0
 40
0.1125
 50
  0
  1
20
  0
TEXT
  8
TOP
 72
0
 10
-1.058291666666667
 20
0.6389166666666668
 30
  0
 40
0.05625000000000002
 50
  0
  1
22.50
  0
POLYLINE
  8
OBS_SSTOP
 66
1
 70
0
 40
0.008000000000000002
 41
0.008000000000000002
  0
VERTEX
  8
OBS_SSTOP
 10
-1.35
 20
1.1
  0
VERTEX
  8
OBS_SSTOP
 10
-1.325
 20
1.1
  0
VERTEX
  8
OBS_SSTOP
 10
-1.325
 20
1.2
  0
VERTEX
  8
OBS_SSTOP
 10
-1.325
 20
1.2
  0
VERTEX
  8
OBS_SSTOP
 10
-1.35
 20
1.2
  0
VERTEX
  8
OBS_SSTOP
 10
-1.35
 20
1.05
  0
VERTEX
  8
OBS_SSTOP
 10
-0.6500000000000001
 20
1.05
  0
VERTEX
  8
OBS_SSTOP
 10
-0.6500000000000001
 20
1.25
  0
VERTEX
  8
OBS_SSTOP
 10
-1.35
 20
1.25
  0
VERTEX
  8
OBS_SSTOP
 10
-1.35
 20
1.2
  0
SEQEND
  8
OBS_SSTOP
  0
POLYLINE
  8
OBS_ASYTOP
 66
1
 70
0
 40
0.008000000000000002
 41
0.008000000000000002
  0
VERTEX
  8
OBS_ASYTOP
 10
-1.35
 20
1.1
  0
VERTEX
  8
OBS_ASYTOP
 10
-1.325
 20
1.1
  0
VERTEX
  8
OBS_ASYTOP
 10
-1.325
 20
1.2
  0
VERTEX
  8
OBS_ASYTOP
 10
-1.325
 20
1.2
  0
VERTEX
  8
OBS_ASYTOP
 10
-1.35
 20
1.2
  0
VERTEX
  8
OBS_ASYTOP
 10
-1.35
 20
1.05
  0
VERTEX
  8
OBS_ASYTOP
 10
-0.6500000000000001
 20
1.05
  0
VERTEX
  8
OBS_ASYTOP
 10
-0.6500000000000001
 20
1.25
  0
VERTEX
  8
OBS_ASYTOP
 10
-1.35
 20
1.25
  0
VERTEX
  8
OBS_ASYTOP
 10
-1.35
 20
1.2
  0
SEQEND
  8
OBS_ASYTOP
  0
POLYLINE
  8
OBS_GLOBAL_LAYER
 66
1
 39
0.001
 70
1
 40
8.333333333333335e-006
 41
8.333333333333335e-006
  0
VERTEX
  8
OBS_GLOBAL_LAYER
 10
-0.5168166666666668
 20
1.06295
  0
VERTEX
  8
OBS_GLOBAL_LAYER
 10
-0.5168166666666668
 20
1.28095
  0
VERTEX
  8
OBS_GLOBAL_LAYER
 10
-0.6248166666666668
 20
1.28095
  0
VERTEX
  8
OBS_GLOBAL_LAYER
 10
-0.6248166666666668
 20
1.06295
  0
VERTEX
  8
OBS_GLOBAL_LAYER
 10
-0.5168166666666668
 20
1.06295
  0
SEQEND
  8
OBS_GLOBAL_LAYER
  0
POLYLINE
  8
OBS_SSTOP
 66
1
 70
0
 40
0.008000000000000002
 41
0.008000000000000002
  0
VERTEX
  8
OBS_SSTOP
 10
-0.5208166666666668
 20
1.27695
  0
VERTEX
  8
OBS_SSTOP
 10
-0.5208166666666668
 20
1.22195
  0
VERTEX
  8
OBS_SSTOP
 10
-0.5208166666666668
 20
1.12195
  0
VERTEX
  8
OBS_SSTOP
 10
-0.5208166666666668
 20
1.06695
  0
VERTEX
  8
OBS_SSTOP
 10
-0.6208166666666668
 20
1.06695
  0
VERTEX
  8
OBS_SSTOP
 10
-0.6208166666666668
 20
1.27695
  0
VERTEX
  8
OBS_SSTOP
 10
-0.5208166666666668
 20
1.27695
  0
SEQEND
  8
OBS_SSTOP
  0
POLYLINE
  8
OBS_ASYTOP
 66
1
 70
0
 40
0.008000000000000002
 41
0.008000000000000002
  0
VERTEX
  8
OBS_ASYTOP
 10
-0.5208166666666668
 20
1.27695
  0
VERTEX
  8
OBS_ASYTOP
 10
-0.5208166666666668
 20
1.22195
  0
VERTEX
  8
OBS_ASYTOP
 10
-0.5208166666666668
 20
1.12195
  0
VERTEX
  8
OBS_ASYTOP
 10
-0.5208166666666668
 20
1.06695
  0
VERTEX
  8
OBS_ASYTOP
 10
-0.6208166666666668
 20
1.06695
  0
VERTEX
  8
OBS_ASYTOP
 10
-0.6208166666666668
 20
1.27695
  0
VERTEX
  8
OBS_ASYTOP
 10
-0.5208166666666668
 20
1.27695
  0
SEQEND
  8
OBS_ASYTOP
  0
POLYLINE
  8
OBS_SSTOP
 66
1
 70
0
 40
0.008000000000000002
 41
0.008000000000000002
  0
VERTEX
  8
OBS_SSTOP
 10
-0.9538500000000002
 20
1.486883333333334
  0
VERTEX
  8
OBS_SSTOP
 10
-1.05385
 20
1.486883333333334
  0
VERTEX
  8
OBS_SSTOP
 10
-1.05385
 20
1.386883333333334
  0
VERTEX
  8
OBS_SSTOP
 10
-0.9538500000000002
 20
1.386883333333334
  0
VERTEX
  8
OBS_SSTOP
 10
-0.9538500000000002
 20
1.486883333333334
  0
SEQEND
  8
OBS_SSTOP
  0
POLYLINE
  8
OBS_ASYTOP
 66
1
 70
0
 40
0.008000000000000002
 41
0.008000000000000002
  0
VERTEX
  8
OBS_ASYTOP
 10
-0.9538500000000002
 20
1.486883333333334
  0
VERTEX
  8
OBS_ASYTOP
 10
-1.05385
 20
1.486883333333334
  0
VERTEX
  8
OBS_ASYTOP
 10
-1.05385
 20
1.386883333333334
  0
VERTEX
  8
OBS_ASYTOP
 10
-0.9538500000000002
 20
1.386883333333334
  0
VERTEX
  8
OBS_ASYTOP
 10
-0.9538500000000002
 20
1.486883333333334
  0
SEQEND
  8
OBS_ASYTOP
  0
POLYLINE
  8
OBS_GLOBAL_LAYER
 66
1
 39
0.001
 70
1
 40
8.333333333333335e-006
 41
8.333333333333335e-006
  0
VERTEX
  8
OBS_GLOBAL_LAYER
 10
-1.05785
 20
1.382883333333334
  0
VERTEX
  8
OBS_GLOBAL_LAYER
 10
-0.9498500000000002
 20
1.382883333333334
  0
VERTEX
  8
OBS_GLOBAL_LAYER
 10
-0.9498500000000002
 20
1.490883333333334
  0
VERTEX
  8
OBS_GLOBAL_LAYER
 10
-1.05785
 20
1.490883333333334
  0
VERTEX
  8
OBS_GLOBAL_LAYER
 10
-1.05785
 20
1.382883333333334
  0
SEQEND
  8
OBS_GLOBAL_LAYER
  0
POLYLINE
  8
OBS_SSTOP
 66
1
 70
0
 40
0.008000000000000002
 41
0.008000000000000002
  0
VERTEX
  8
OBS_SSTOP
 10
-1.150683333333334
 20
1.486883333333334
  0
VERTEX
  8
OBS_SSTOP
 10
-1.250683333333334
 20
1.486883333333334
  0
VERTEX
  8
OBS_SSTOP
 10
-1.250683333333334
 20
1.386883333333334
  0
VERTEX
  8
OBS_SSTOP
 10
-1.150683333333334
 20
1.386883333333334
  0
VERTEX
  8
OBS_SSTOP
 10
-1.150683333333334
 20
1.486883333333334
  0
SEQEND
  8
OBS_SSTOP
  0
POLYLINE
  8
OBS_ASYTOP
 66
1
 70
0
 40
0.008000000000000002
 41
0.008000000000000002
  0
VERTEX
  8
OBS_ASYTOP
 10
-1.150683333333334
 20
1.486883333333334
  0
VERTEX
  8
OBS_ASYTOP
 10
-1.250683333333334
 20
1.486883333333334
  0
VERTEX
  8
OBS_ASYTOP
 10
-1.250683333333334
 20
1.386883333333334
  0
VERTEX
  8
OBS_ASYTOP
 10
-1.150683333333334
 20
1.386883333333334
  0
VERTEX
  8
OBS_ASYTOP
 10
-1.150683333333334
 20
1.486883333333334
  0
SEQEND
  8
OBS_ASYTOP
  0
POLYLINE
  8
OBS_GLOBAL_LAYER
 66
1
 39
0.001
 70
1
 40
8.333333333333335e-006
 41
8.333333333333335e-006
  0
VERTEX
  8
OBS_GLOBAL_LAYER
 10
-1.254683333333334
 20
1.382883333333334
  0
VERTEX
  8
OBS_GLOBAL_LAYER
 10
-1.146683333333334
 20
1.382883333333334
  0
VERTEX
  8
OBS_GLOBAL_LAYER
 10
-1.146683333333334
 20
1.490883333333334
  0
VERTEX
  8
OBS_GLOBAL_LAYER
 10
-1.254683333333334
 20
1.490883333333334
  0
VERTEX
  8
OBS_GLOBAL_LAYER
 10
-1.254683333333334
 20
1.382883333333334
  0
SEQEND
  8
OBS_GLOBAL_LAYER
  0
POLYLINE
  8
OBS_SSTOP
 66
1
 70
0
 40
0.008000000000000002
 41
0.008000000000000002
  0
VERTEX
  8
OBS_SSTOP
 10
-1.2491
 20
0.9357500000000002
  0
VERTEX
  8
OBS_SSTOP
 10
-1.3491
 20
0.9357500000000002
  0
VERTEX
  8
OBS_SSTOP
 10
-1.3491
 20
0.8357500000000002
  0
VERTEX
  8
OBS_SSTOP
 10
-1.2491
 20
0.8357500000000002
  0
VERTEX
  8
OBS_SSTOP
 10
-1.2491
 20
0.9357500000000002
  0
SEQEND
  8
OBS_SSTOP
  0
POLYLINE
  8
OBS_ASYTOP
 66
1
 70
0
 40
0.008000000000000002
 41
0.008000000000000002
  0
VERTEX
  8
OBS_ASYTOP
 10
-1.2491
 20
0.9357500000000002
  0
VERTEX
  8
OBS_ASYTOP
 10
-1.3491
 20
0.9357500000000002
  0
VERTEX
  8
OBS_ASYTOP
 10
-1.3491
 20
0.8357500000000002
  0
VERTEX
  8
OBS_ASYTOP
 10
-1.2491
 20
0.8357500000000002
  0
VERTEX
  8
OBS_ASYTOP
 10
-1.2491
 20
0.9357500000000002
  0
SEQEND
  8
OBS_ASYTOP
  0
POLYLINE
  8
OBS_GLOBAL_LAYER
 66
1
 39
0.001
 70
1
 40
8.333333333333335e-006
 41
8.333333333333335e-006
  0
VERTEX
  8
OBS_GLOBAL_LAYER
 10
-1.3531
 20
0.8317500000000002
  0
VERTEX
  8
OBS_GLOBAL_LAYER
 10
-1.2451
 20
0.8317500000000002
  0
VERTEX
  8
OBS_GLOBAL_LAYER
 10
-1.2451
 20
0.9397500000000002
  0
VERTEX
  8
OBS_GLOBAL_LAYER
 10
-1.3531
 20
0.9397500000000002
  0
VERTEX
  8
OBS_GLOBAL_LAYER
 10
-1.3531
 20
0.8317500000000002
  0
SEQEND
  8
OBS_GLOBAL_LAYER
  0
POLYLINE
  8
OBS_SSTOP
 66
1
 70
0
 40
0.008000000000000002
 41
0.008000000000000002
  0
VERTEX
  8
OBS_SSTOP
 10
-1.052266666666667
 20
0.9357500000000002
  0
VERTEX
  8
OBS_SSTOP
 10
-1.152266666666667
 20
0.9357500000000002
  0
VERTEX
  8
OBS_SSTOP
 10
-1.152266666666667
 20
0.8357500000000002
  0
VERTEX
  8
OBS_SSTOP
 10
-1.052266666666667
 20
0.8357500000000002
  0
VERTEX
  8
OBS_SSTOP
 10
-1.052266666666667
 20
0.9357500000000002
  0
SEQEND
  8
OBS_SSTOP
  0
POLYLINE
  8
OBS_ASYTOP
 66
1
 70
0
 40
0.008000000000000002
 41
0.008000000000000002
  0
VERTEX
  8
OBS_ASYTOP
 10
-1.052266666666667
 20
0.9357500000000002
  0
VERTEX
  8
OBS_ASYTOP
 10
-1.152266666666667
 20
0.9357500000000002
  0
VERTEX
  8
OBS_ASYTOP
 10
-1.152266666666667
 20
0.8357500000000002
  0
VERTEX
  8
OBS_ASYTOP
 10
-1.052266666666667
 20
0.8357500000000002
  0
VERTEX
  8
OBS_ASYTOP
 10
-1.052266666666667
 20
0.9357500000000002
  0
SEQEND
  8
OBS_ASYTOP
  0
POLYLINE
  8
OBS_GLOBAL_LAYER
 66
1
 39
0.001
 70
1
 40
8.333333333333335e-006
 41
8.333333333333335e-006
  0
VERTEX
  8
OBS_GLOBAL_LAYER
 10
-1.156266666666667
 20
0.8317500000000002
  0
VERTEX
  8
OBS_GLOBAL_LAYER
 10
-1.048266666666667
 20
0.8317500000000002
  0
VERTEX
  8
OBS_GLOBAL_LAYER
 10
-1.048266666666667
 20
0.9397500000000002
  0
VERTEX
  8
OBS_GLOBAL_LAYER
 10
-1.156266666666667
 20
0.9397500000000002
  0
VERTEX
  8
OBS_GLOBAL_LAYER
 10
-1.156266666666667
 20
0.8317500000000002
  0
SEQEND
  8
OBS_GLOBAL_LAYER
  0
POLYLINE
  8
OBS_GLOBAL_LAYER
 66
1
 39
0.001
 70
1
 40
8.333333333333335e-006
 41
8.333333333333335e-006
  0
VERTEX
  8
OBS_GLOBAL_LAYER
 10
-1.354
 20
0.9460000000000003
  0
VERTEX
  8
OBS_GLOBAL_LAYER
 10
-0.6460000000000001
 20
0.9460000000000003
  0
VERTEX
  8
OBS_GLOBAL_LAYER
 10
-0.6460000000000001
 20
1.354
  0
VERTEX
  8
OBS_GLOBAL_LAYER
 10
-1.354
 20
1.354
  0
VERTEX
  8
OBS_GLOBAL_LAYER
 10
-1.354
 20
0.9460000000000003
  0
SEQEND
  8
OBS_GLOBAL_LAYER
  0
POLYLINE
  8
BOARD_OUTLINE
 66
1
 70
0
 40
0.007875000000000002
 41
0.007875000000000002
  0
VERTEX
  8
BOARD_OUTLINE
 10
-1.377833333333334
 20
0.7282833333333335
  0
VERTEX
  8
BOARD_OUTLINE
 10
-1.377833333333334
 20
1.554983333333334
  0
VERTEX
  8
BOARD_OUTLINE
 10
-0.4920833333333335
 20
1.554983333333334
  0
VERTEX
  8
BOARD_OUTLINE
 10
-0.4920833333333335
 20
0.7676500000000002
  0
VERTEX
  8
BOARD_OUTLINE
 10
-1.377833333333334
 20
0.7676500000000002
  0
VERTEX
  8
BOARD_OUTLINE
 10
-1.377833333333334
 20
0.7282833333333335
  0
SEQEND
  8
BOARD_OUTLINE
  0
POLYLINE
  8
OBS_DRLDWG
 66
1
 70
0
 40
0.01
 41
0.01
  0
VERTEX
  8
OBS_DRLDWG
 10
  0
 20
  0
  0
VERTEX
  8
OBS_DRLDWG
 10
  0
 20
-1.05
  0
SEQEND
  8
OBS_DRLDWG
  0
POLYLINE
  8
OBS_DRLDWG
 66
1
 70
0
 40
0.01
 41
0.01
  0
VERTEX
  8
OBS_DRLDWG
 10
-0.005000000000000001
 20
  0
  0
VERTEX
  8
OBS_DRLDWG
 10
-0.005000000000000001
 20
-1.05
  0
SEQEND
  8
OBS_DRLDWG
  0
POLYLINE
  8
OBS_DRLDWG
 66
1
 70
0
 40
0.01
 41
0.01
  0
VERTEX
  8
OBS_DRLDWG
 10
0.3650000000000001
 20
-0.2
  0
VERTEX
  8
OBS_DRLDWG
 10
0.3650000000000001
 20
-0.8500000000000002
  0
SEQEND
  8
OBS_DRLDWG
  0
POLYLINE
  8
OBS_DRLDWG
 66
1
 70
0
 40
0.01
 41
0.01
  0
VERTEX
  8
OBS_DRLDWG
 10
0.3700000000000001
 20
-0.2
  0
VERTEX
  8
OBS_DRLDWG
 10
0.3700000000000001
 20
-0.8500000000000002
  0
SEQEND
  8
OBS_DRLDWG
  0
POLYLINE
  8
OBS_DRLDWG
 66
1
 70
0
 40
0.01
 41
0.01
  0
VERTEX
  8
OBS_DRLDWG
 10
1.209166666666667
 20
-0.2
  0
VERTEX
  8
OBS_DRLDWG
 10
1.209166666666667
 20
-0.8500000000000002
  0
SEQEND
  8
OBS_DRLDWG
  0
POLYLINE
  8
OBS_DRLDWG
 66
1
 70
0
 40
0.01
 41
0.01
  0
VERTEX
  8
OBS_DRLDWG
 10
2.015833333333334
 20
-0.2
  0
VERTEX
  8
OBS_DRLDWG
 10
2.015833333333334
 20
-1.05
  0
SEQEND
  8
OBS_DRLDWG
  0
POLYLINE
  8
OBS_DRLDWG
 66
1
 70
0
 40
0.01
 41
0.01
  0
VERTEX
  8
OBS_DRLDWG
 10
2.570833333333334
 20
-0.2
  0
VERTEX
  8
OBS_DRLDWG
 10
2.570833333333334
 20
-1.05
  0
SEQEND
  8
OBS_DRLDWG
  0
POLYLINE
  8
OBS_DRLDWG
 66
1
 70
0
 40
0.01
 41
0.01
  0
VERTEX
  8
OBS_DRLDWG
 10
3.724991666666668
 20
  0
  0
VERTEX
  8
OBS_DRLDWG
 10
3.724991666666668
 20
-1.05
  0
SEQEND
  8
OBS_DRLDWG
  0
POLYLINE
  8
OBS_DRLDWG
 66
1
 70
0
 40
0.01
 41
0.01
  0
VERTEX
  8
OBS_DRLDWG
 10
3.729991666666668
 20
  0
  0
VERTEX
  8
OBS_DRLDWG
 10
3.729991666666668
 20
-1.05
  0
SEQEND
  8
OBS_DRLDWG
  0
POLYLINE
  8
OBS_DRLDWG
 66
1
 70
0
 40
0.01
 41
0.01
  0
VERTEX
  8
OBS_DRLDWG
 10
-0.005000000000000001
 20
0.005000000000000001
  0
VERTEX
  8
OBS_DRLDWG
 10
3.729991666666668
 20
0.005000000000000001
  0
SEQEND
  8
OBS_DRLDWG
  0
POLYLINE
  8
OBS_DRLDWG
 66
1
 70
0
 40
0.01
 41
0.01
  0
VERTEX
  8
OBS_DRLDWG
 10
  0
 20
  0
  0
VERTEX
  8
OBS_DRLDWG
 10
3.724991666666668
 20
  0
  0
SEQEND
  8
OBS_DRLDWG
  0
POLYLINE
  8
OBS_DRLDWG
 66
1
 70
0
 40
0.01
 41
0.01
  0
VERTEX
  8
OBS_DRLDWG
 10
  0
 20
-0.1950000000000001
  0
VERTEX
  8
OBS_DRLDWG
 10
3.724991666666668
 20
-0.1950000000000001
  0
SEQEND
  8
OBS_DRLDWG
  0
POLYLINE
  8
OBS_DRLDWG
 66
1
 70
0
 40
0.01
 41
0.01
  0
VERTEX
  8
OBS_DRLDWG
 10
  0
 20
-0.2
  0
VERTEX
  8
OBS_DRLDWG
 10
3.724991666666668
 20
-0.2
  0
SEQEND
  8
OBS_DRLDWG
  0
POLYLINE
  8
OBS_DRLDWG
 66
1
 70
0
 40
0.01
 41
0.01
  0
VERTEX
  8
OBS_DRLDWG
 10
  0
 20
-0.3950000000000001
  0
VERTEX
  8
OBS_DRLDWG
 10
3.724991666666668
 20
-0.3950000000000001
  0
SEQEND
  8
OBS_DRLDWG
  0
POLYLINE
  8
OBS_DRLDWG
 66
1
 70
0
 40
0.01
 41
0.01
  0
VERTEX
  8
OBS_DRLDWG
 10
  0
 20
-0.4000000000000001
  0
VERTEX
  8
OBS_DRLDWG
 10
3.724991666666668
 20
-0.4000000000000001
  0
SEQEND
  8
OBS_DRLDWG
  0
POLYLINE
  8
OBS_DRLDWG
 66
1
 70
0
 40
0.01
 41
0.01
  0
VERTEX
  8
OBS_DRLDWG
 10
  0
 20
-0.5500000000000002
  0
VERTEX
  8
OBS_DRLDWG
 10
3.724991666666668
 20
-0.5500000000000002
  0
SEQEND
  8
OBS_DRLDWG
  0
POLYLINE
  8
OBS_DRLDWG
 66
1
 70
0
 40
0.01
 41
0.01
  0
VERTEX
  8
OBS_DRLDWG
 10
  0
 20
-0.7000000000000002
  0
VERTEX
  8
OBS_DRLDWG
 10
3.724991666666668
 20
-0.7000000000000002
  0
SEQEND
  8
OBS_DRLDWG
  0
POLYLINE
  8
OBS_DRLDWG
 66
1
 70
0
 40
0.01
 41
0.01
  0
VERTEX
  8
OBS_DRLDWG
 10
  0
 20
-0.8500000000000002
  0
VERTEX
  8
OBS_DRLDWG
 10
3.724991666666668
 20
-0.8500000000000002
  0
SEQEND
  8
OBS_DRLDWG
  0
POLYLINE
  8
OBS_DRLDWG
 66
1
 70
0
 40
0.01
 41
0.01
  0
VERTEX
  8
OBS_DRLDWG
 10
  0
 20
-1.05
  0
VERTEX
  8
OBS_DRLDWG
 10
3.724991666666668
 20
-1.05
  0
SEQEND
  8
OBS_DRLDWG
  0
POLYLINE
  8
OBS_DRLDWG
 66
1
 70
0
 40
0.01
 41
0.01
  0
VERTEX
  8
OBS_DRLDWG
 10
-0.005000000000000001
 20
-1.055
  0
VERTEX
  8
OBS_DRLDWG
 10
3.729991666666668
 20
-1.055
  0
SEQEND
  8
OBS_DRLDWG
  0
POLYLINE
  8
OBS_DRLDWG
 66
1
 70
0
 40
0.01
 41
0.01
  0
VERTEX
  8
OBS_DRLDWG
 10
0.1575
 20
-0.4500000000000001
  0
VERTEX
  8
OBS_DRLDWG
 10
0.2075000000000001
 20
-0.5000000000000001
  0
SEQEND
  8
OBS_DRLDWG
  0
POLYLINE
  8
OBS_DRLDWG
 66
1
 70
0
 40
0.01
 41
0.01
  0
VERTEX
  8
OBS_DRLDWG
 10
0.1575
 20
-0.5000000000000001
  0
VERTEX
  8
OBS_DRLDWG
 10
0.2075000000000001
 20
-0.4500000000000001
  0
SEQEND
  8
OBS_DRLDWG
  0
POLYLINE
  8
OBS_DRLDWG
 66
1
 70
0
 40
0.01
 41
0.01
  0
VERTEX
  8
OBS_DRLDWG
 10
0.1825000000000001
 20
-0.6500000000000001
  0
VERTEX
  8
OBS_DRLDWG
 10
0.1825000000000001
 20
-0.6000000000000002
  0
SEQEND
  8
OBS_DRLDWG
  0
POLYLINE
  8
OBS_DRLDWG
 66
1
 70
0
 40
0.01
 41
0.01
  0
VERTEX
  8
OBS_DRLDWG
 10
0.1575
 20
-0.6250000000000001
  0
VERTEX
  8
OBS_DRLDWG
 10
0.2075000000000001
 20
-0.6250000000000001
  0
SEQEND
  8
OBS_DRLDWG
  0
POLYLINE
  8
OBS_DRLDWG
 66
1
 70
0
 40
0.01
 41
0.01
  0
VERTEX
  8
OBS_DRLDWG
 10
0.1825000000000001
 20
-0.8000000000000002
  0
VERTEX
  8
OBS_DRLDWG
 10
0.1575
 20
-0.7750000000000002
  0
SEQEND
  8
OBS_DRLDWG
  0
POLYLINE
  8
OBS_DRLDWG
 66
1
 70
0
 40
0.01
 41
0.01
  0
VERTEX
  8
OBS_DRLDWG
 10
0.2075000000000001
 20
-0.7750000000000002
  0
VERTEX
  8
OBS_DRLDWG
 10
0.1825000000000001
 20
-0.8000000000000002
  0
SEQEND
  8
OBS_DRLDWG
  0
POLYLINE
  8
OBS_DRLDWG
 66
1
 70
0
 40
0.01
 41
0.01
  0
VERTEX
  8
OBS_DRLDWG
 10
0.1825000000000001
 20
-0.7500000000000002
  0
VERTEX
  8
OBS_DRLDWG
 10
0.2075000000000001
 20
-0.7750000000000002
  0
SEQEND
  8
OBS_DRLDWG
  0
POLYLINE
  8
OBS_DRLDWG
 66
1
 70
0
 40
0.01
 41
0.01
  0
VERTEX
  8
OBS_DRLDWG
 10
0.1575
 20
-0.7750000000000002
  0
VERTEX
  8
OBS_DRLDWG
 10
0.1825000000000001
 20
-0.7500000000000002
  0
SEQEND
  8
OBS_DRLDWG
  0
POLYLINE
  8
OBS_TOP
 66
1
 70
0
 40
0.01
 41
0.01
  0
VERTEX
  8
OBS_TOP
 10
-1.321583333333334
 20
0.7076666666666669
  0
VERTEX
  8
OBS_TOP
 10
-1.377833333333334
 20
0.6889166666666668
  0
VERTEX
  8
OBS_TOP
 10
-1.321583333333334
 20
0.6701666666666668
  0
SEQEND
  8
OBS_TOP
  0
POLYLINE
  8
OBS_TOP
 66
1
 70
0
 40
0.01
 41
0.01
  0
VERTEX
  8
OBS_TOP
 10
-1.377833333333334
 20
0.6889166666666668
  0
VERTEX
  8
OBS_TOP
 10
-1.114541666666667
 20
0.6889166666666668
  0
SEQEND
  8
OBS_TOP
  0
POLYLINE
  8
OBS_TOP
 66
1
 70
0
 40
0.01
 41
0.01
  0
VERTEX
  8
OBS_TOP
 10
-1.377833333333334
 20
0.8014166666666669
  0
VERTEX
  8
OBS_TOP
 10
-1.377833333333334
 20
0.5764166666666668
  0
SEQEND
  8
OBS_TOP
  0
POLYLINE
  8
OBS_TOP
 66
1
 70
0
 40
0.01
 41
0.01
  0
VERTEX
  8
OBS_TOP
 10
-0.5483333333333335
 20
0.6701666666666668
  0
VERTEX
  8
OBS_TOP
 10
-0.4920833333333335
 20
0.6889166666666668
  0
VERTEX
  8
OBS_TOP
 10
-0.5483333333333335
 20
0.7076666666666669
  0
SEQEND
  8
OBS_TOP
  0
POLYLINE
  8
OBS_TOP
 66
1
 70
0
 40
0.01
 41
0.01
  0
VERTEX
  8
OBS_TOP
 10
-0.4920833333333335
 20
0.6889166666666668
  0
VERTEX
  8
OBS_TOP
 10
-0.7553750000000002
 20
0.6889166666666668
  0
SEQEND
  8
OBS_TOP
  0
POLYLINE
  8
OBS_TOP
 66
1
 70
0
 40
0.01
 41
0.01
  0
VERTEX
  8
OBS_TOP
 10
-0.4920833333333335
 20
0.8014166666666669
  0
VERTEX
  8
OBS_TOP
 10
-0.4920833333333335
 20
0.5764166666666668
  0
SEQEND
  8
OBS_TOP
  0
ENDSEC
  0
EOF
